<svg width="118" height="112" viewBox="0 0 118 112" fill="none" xmlns="http://www.w3.org/2000/svg">
<path d="M59.4801 109.66C62.3501 109.61 65.2302 109.57 68.0902 109.3C69.5202 109.17 70.9602 108.98 72.3302 108.57C73.4102 108.25 74.5401 107.71 75.0401 106.7C75.1101 106.56 75.1702 106.4 75.1402 106.24C75.1202 106.08 75.0202 105.95 74.9002 105.84C74.3202 105.27 73.4201 105.25 72.6101 105.26C64.6801 105.37 56.7502 105.52 48.8402 106.16C47.4202 106.28 45.8101 106.51 44.9901 107.68C43.2001 110.23 49.3601 109.67 50.4701 109.7C53.4801 109.76 56.4801 109.71 59.4801 109.66Z" fill="url(#paint0_linear)"/>
<path d="M59.4801 109.66C62.3501 109.61 65.2302 109.57 68.0902 109.3C69.5202 109.17 70.9602 108.98 72.3302 108.57C73.4102 108.25 74.5401 107.71 75.0401 106.7C75.1101 106.56 75.1702 106.4 75.1402 106.24C75.1202 106.08 75.0202 105.95 74.9002 105.84C74.3202 105.27 73.4201 105.25 72.6101 105.26C64.6801 105.37 56.7502 105.52 48.8402 106.16C47.4202 106.28 45.8101 106.51 44.9901 107.68C43.2001 110.23 49.3601 109.67 50.4701 109.7C53.4801 109.76 56.4801 109.71 59.4801 109.66Z" fill="url(#paint1_linear)"/>
<path d="M39.2801 72.04C41.4201 82.56 47.5101 91.96 49.6401 102.49C49.7801 103.18 49.9101 103.89 50.2901 104.47C50.6801 105.05 51.4001 105.48 52.0701 105.3C53.2901 104.97 53.2801 103.27 53.1101 102.02C52.6101 98.29 53.0401 94.5 53.4801 90.76C54.1601 84.93 54.8401 79.1 55.5201 73.26C56.0301 72.73 56.9501 72.85 57.5101 73.33C58.0701 73.8 58.3401 74.52 58.5601 75.22C59.5501 78.33 59.9601 81.58 60.3801 84.81C61.2101 91.28 62.0301 97.76 62.1301 104.28C62.7201 104.32 63.3101 104.36 63.9001 104.39C66.3201 97.93 68.14 91.27 69.85 84.6C70.72 81.22 71.5601 77.83 72.1101 74.38C72.8301 69.85 73.0201 65.25 73.1701 60.67C73.2001 59.74 73.2101 58.75 72.6801 57.98C72.2101 57.3 71.4001 56.95 70.6201 56.65C63.9301 54.08 56.74 53.13 49.6 52.57C47.59 52.41 45.5601 52.29 43.5801 52.65C42.0201 52.93 40.3201 53.55 39.1501 54.67C37.8301 55.94 38.2601 57.95 38.2501 59.7C38.2301 63.83 38.4501 67.98 39.2801 72.04Z" fill="#666666"/>
<path d="M35.0501 48.69C34.3901 50.69 33.8701 53.06 35.0901 54.78C35.6701 55.59 36.5501 56.12 37.4401 56.57C42.4401 59.09 48.1601 59.68 53.7301 60.22C58.7501 60.71 63.7901 61.2 68.8301 60.93C71.2301 60.8 73.7601 60.45 75.6301 58.94C77.4101 57.51 78.3401 55.22 78.5901 52.95C78.8401 50.68 78.5001 48.39 78.1501 46.13C77.7701 43.65 77.3901 41.17 76.7401 38.75C75.6101 34.54 73.6401 30.56 71.0001 27.1C69.0001 24.49 66.5701 22.13 63.5901 20.73C60.7701 19.4 56.4901 18.79 53.5601 20.22C50.6301 21.64 47.9401 25.73 45.9801 28.25C41.2101 34.38 37.4801 41.32 35.0501 48.69Z" fill="#D9924E"/>
<path d="M62.9801 13.45C62.9501 13.98 62.9201 14.52 62.7701 15.04C62.4001 16.27 61.2801 17.38 59.7601 17.97C58.2401 18.56 56.3501 18.63 54.7901 18.11C53.2401 17.6 52.1001 16.6 51.1901 15.55C49.2901 13.35 48.1801 10.73 48.4401 8.13C48.4801 7.74 48.5601 7.33999 48.8901 7.02999C49.3601 6.58999 50.1901 6.48998 50.9401 6.42998C53.4101 6.20998 60.2601 4.64999 62.2901 5.83999C64.3001 7.01999 63.0801 11.8 62.9801 13.45Z" fill="#F2D6C9"/>
<path d="M43.0202 5.98C43.3802 7.51 45.3301 8.66999 47.4201 8.93999C49.5101 9.19999 51.6601 8.69998 53.4801 7.89998C55.4201 7.03998 57.2401 5.78999 59.5001 5.71999C59.9201 5.70999 60.3502 5.73999 60.7102 5.87999C61.1102 6.03999 61.4001 6.32998 61.6301 6.61998C62.9201 8.21998 63.1102 10.16 63.2702 12.01C63.9602 10.4 64.5102 8.75998 64.9002 7.08998C65.3302 5.26998 65.4502 3.13998 63.6502 1.86998C62.2802 0.899982 60.1702 0.729981 58.2702 0.899981C55.6002 1.13998 53.0302 1.95999 50.9602 3.21999C50.1402 3.71999 49.3901 4.29 48.4901 4.73C47.6001 5.16 46.5202 5.45999 45.4602 5.31999C44.3002 5.15999 44.0701 4.44997 43.2601 4.04997C42.9301 4.60997 42.8802 5.36 43.0202 5.98Z" fill="#D1B380"/>
<path d="M67.1101 32.05C66.3701 30.69 65.2801 29.58 64.3601 28.34C63.4401 27.1 62.6701 25.64 62.7501 24.1C62.8301 22.56 64.0401 21 65.5801 21.01C66.2201 21.01 66.8201 21.27 67.3901 21.56C69.2401 22.49 70.9301 23.76 72.3201 25.3C72.8601 25.9 73.3601 26.54 73.7101 27.27C74.2201 28.34 74.3601 29.55 74.4901 30.73C74.7101 32.81 74.8901 34.92 74.4401 36.96C73.7901 39.87 71.7101 42.47 68.9601 43.64C68.3701 43.89 67.4701 44.32 66.9101 44C66.3101 43.66 66.2001 42.88 66.3301 42.29C66.6701 40.67 67.7801 39.33 68.0301 37.61C68.2801 35.72 68.0301 33.74 67.1101 32.05Z" fill="#F2D6C9"/>
<path d="M63.9001 43.43C63.7801 43.51 63.6601 43.6 63.5701 43.71C63.3501 43.99 63.3401 44.37 63.3401 44.73C63.3401 45.3 63.4001 45.97 63.8901 46.26C64.1101 46.39 64.3801 46.41 64.6401 46.42C64.9101 46.43 65.1801 46.45 65.4501 46.46C65.7401 46.48 66.05 46.49 66.29 46.33C66.54 46.17 66.6501 45.87 66.7501 45.59C66.9901 44.9 67.23 44.22 67.47 43.53C67.51 43.41 67.5501 43.28 67.5001 43.17C67.4701 43.1 67.4001 43.05 67.3401 43.01C66.7701 42.57 66.5001 42.35 65.7701 42.51C65.1601 42.64 64.3401 42.99 63.9001 43.43Z" fill="#F2D6C9"/>
<path d="M69.2901 104.86C68.9301 104.53 68.4001 104.48 67.9201 104.45C67.2001 104.4 66.4801 104.34 65.7601 104.29C65.4501 104.27 65.1201 104.24 64.8701 104.06C64.7701 103.99 64.6901 103.89 64.6201 103.79C64.3901 103.79 64.1701 103.78 63.9401 103.78C63.1101 103.76 62.2801 104.07 61.4701 104.32C61.6401 105.03 61.8001 105.73 61.9701 106.44C62.0001 106.58 62.0401 106.73 62.1501 106.82C62.2601 106.91 62.4201 106.92 62.5701 106.92C64.9701 106.98 67.3801 106.89 69.7701 106.66C69.7901 106.01 69.7701 105.28 69.2901 104.86Z" fill="black"/>
<path d="M52.7302 104.22C52.7702 105.17 52.8002 106.17 52.3602 107.02C52.0502 107.62 51.5302 108.07 51.0202 108.52C50.7502 108.75 50.4902 108.98 50.2202 109.22C50.1502 109.28 50.0702 109.35 49.9802 109.38C49.8802 109.41 49.7702 109.41 49.6702 109.4C49.2102 109.38 48.7602 109.42 48.3002 109.39C47.8502 109.35 47.3802 109.22 47.0602 108.89C46.7402 108.56 46.6402 108 46.9202 107.64C47.1002 107.41 47.4002 107.3 47.6602 107.17C48.4502 106.81 49.1302 106.22 49.5902 105.49C49.8802 105.03 50.1502 104.55 50.6802 104.36C50.8802 104.29 52.7302 104.08 52.7302 104.22Z" fill="black"/>
<path d="M68.8802 41.44C68.7702 41.21 68.6502 40.98 68.4602 40.82C68.2102 40.62 67.8701 40.61 67.5601 40.6C61.9901 40.42 56.4102 40.23 50.8402 40.05C50.3902 40.03 49.9801 40.32 49.7901 40.76C48.8901 42.88 47.8202 44.66 47.1402 46.87C47.0502 47.17 47.2601 47.47 47.5601 47.48C55.0801 47.58 62.9901 48.39 70.5001 47.76C71.0101 47.72 71.3201 47.14 71.1001 46.65C70.3501 44.95 69.6202 42.96 68.8802 41.44Z" fill="#7F7F7F"/>
<path d="M68.7302 40.95C68.6202 40.72 68.5102 40.49 68.3102 40.33C68.0602 40.13 67.7302 40.12 67.4302 40.11C61.9602 39.93 56.4902 39.74 51.0302 39.56C50.5902 39.54 50.1802 39.83 50.0002 40.27C49.1102 42.39 48.0602 44.17 47.4002 46.38C47.3102 46.68 47.5202 46.98 47.8102 46.99C55.1902 47.09 62.9502 47.9 70.3202 47.27C70.8202 47.23 71.1202 46.65 70.9102 46.16C70.1802 44.46 69.4602 42.47 68.7302 40.95Z" fill="#666666"/>
<path d="M67.86 41.4C67.76 41.24 67.66 41.07 67.48 40.96C67.26 40.82 66.96 40.81 66.68 40.8C61.75 40.67 56.8201 40.53 51.8901 40.4C51.4901 40.39 51.1301 40.59 50.9601 40.91C50.1601 42.43 49.2101 43.71 48.6201 45.3C48.5401 45.51 48.73 45.73 48.99 45.74C55.65 45.81 62.65 46.4 69.29 45.94C69.74 45.91 70.0201 45.49 69.8201 45.14C69.1701 43.92 68.52 42.49 67.86 41.4Z" fill="#F0F0F0"/>
<path d="M61.3701 41.8401C61.3401 41.8801 61.3501 41.93 61.3601 41.98C61.5601 43.13 61.7601 44.3 62.2001 45.38C63.5201 45.38 64.8401 45.38 66.1601 45.39C66.5801 45.39 67.0001 45.39 67.4001 45.31C66.9601 44.17 66.5101 43.03 66.0701 41.89C64.5601 41.93 63.0501 41.9 61.5501 41.8C61.4801 41.79 61.4101 41.7901 61.3701 41.8401Z" fill="#E0C74E"/>
<path d="M59.7101 41.72C57.2801 41.85 54.8701 41.81 52.4401 41.72C52.2501 41.71 52.2501 42 52.4401 42.02C54.8601 42.2 57.2901 42.17 59.7101 42.05C59.9201 42.04 59.9301 41.71 59.7101 41.72Z" fill="#CACACA"/>
<path d="M59.9601 42.6501C57.5801 42.6401 55.2001 42.7101 52.8301 42.8401C52.6501 42.8501 52.6501 43.13 52.8301 43.12C55.2101 43.01 57.5801 42.98 59.9601 42.99C60.1801 42.99 60.1801 42.6501 59.9601 42.6501Z" fill="#CACACA"/>
<path d="M59.9601 43.82C57.4601 43.71 54.9501 43.69 52.4501 43.7C52.2601 43.7 52.2601 43.99 52.4501 43.99C54.9601 44.03 57.4601 44.11 59.9601 44.17C60.1801 44.17 60.1801 43.83 59.9601 43.82Z" fill="#CACACA"/>
<path d="M59.29 44.71C57.07 44.69 54.84 44.73 52.61 44.75C52.42 44.75 52.42 45.04 52.61 45.04C54.83 45.06 57.06 45.1 59.29 45.08C59.53 45.08 59.53 44.72 59.29 44.71Z" fill="#CACACA"/>
<path d="M50.0901 43.48C50.5001 43.52 50.9201 43.56 51.3301 43.48C51.6701 43.42 52.0001 43.28 52.2801 43.08C52.7201 42.77 53.0501 42.27 53.0801 41.73C53.1001 41.19 52.7601 40.63 52.2401 40.48C52.0001 40.41 51.7501 40.43 51.5001 40.48C50.4001 40.67 49.4001 41.3 48.2901 41.38C47.8801 41.41 47.4201 41.38 47.1301 41.66C46.9701 41.82 46.8901 42.04 46.8501 42.27C46.8101 42.51 46.8001 42.78 46.9201 42.99C47.1501 43.4 47.8201 43.27 48.2201 43.3C48.8401 43.36 49.4601 43.42 50.0901 43.48Z" fill="#F2D6C9"/>
<path d="M42.7901 24.28C40.9501 25.66 39.4502 27.45 38.0202 29.25C36.7002 30.92 35.3901 32.67 34.7401 34.7C34.0901 36.73 34.2002 39.12 35.5202 40.79C36.8602 42.48 39.1001 43.1 41.2201 43.51C42.0601 43.67 42.9202 43.82 43.7802 43.76C44.7302 43.7 46.2601 43.88 47.1701 43.58C47.6601 43.42 47.6602 42.95 48.0302 42.59C48.4002 42.23 48.4801 41.45 48.2201 41.01C46.6801 40.91 45.1401 40.75 43.6101 40.53C42.3401 40.35 40.9602 40.06 40.1402 39.08C39.2502 38.02 39.3101 36.39 39.9701 35.17C40.6301 33.95 41.7801 33.08 42.9701 32.37C44.1601 31.66 45.4302 31.07 46.5302 30.23C48.4102 28.79 56.3302 23.07 54.0802 20.65C52.2802 18.75 44.3401 23.11 42.7901 24.28Z" fill="#F2D6C9"/>
<path d="M74.7601 28.17C74.8501 27.6 74.46 27.07 74.1 26.62C73.31 25.64 72.52 24.65 71.72 23.67C71.34 23.2 70.9601 22.72 70.4901 22.33C69.5601 21.55 68.3601 21.18 67.2001 20.84C65.8701 20.45 64.3201 20.12 63.2001 20.93C62.4301 21.49 62.0801 22.48 62.0801 23.43C62.0801 24.38 62.39 25.29 62.73 26.18C63.23 27.5 63.77 28.87 64.48 30.09C65.07 31.12 65.73 31.04 66.73 30.59C69.34 29.42 71.9201 28.51 74.7601 28.17Z" fill="#D9924E"/>
<path d="M44.1701 27C45.0301 28.37 46.0902 29.6 47.1502 30.82C47.2302 30.92 47.3302 31.02 47.4602 31.02C47.5602 31.02 47.6501 30.96 47.7201 30.9C48.5501 30.26 49.1102 29.35 49.8302 28.59C51.2602 27.09 53.3202 26.21 54.4502 24.48C55.0902 23.49 55.3701 22.27 55.2301 21.1C55.1801 20.69 55.0702 20.27 54.8102 19.96C54.4402 19.51 53.8302 19.33 53.2502 19.33C52.4202 19.33 51.6201 19.62 50.8501 19.92C48.6601 20.77 46.5002 21.71 44.3802 22.73C43.8602 22.98 43.3302 23.24 42.8102 23.5C42.1302 23.85 41.9602 23.84 42.4002 24.44C43.0302 25.27 43.6101 26.1 44.1701 27Z" fill="#D9924E"/>
<path d="M110.05 111.43C111.97 111.43 113.93 111.41 115.76 110.82C115.9 110.39 115.64 109.9 115.26 109.64C114.88 109.38 114.42 109.3 113.96 109.24C112.42 109.04 110.86 108.99 109.3 108.94C103.25 108.76 97.1901 108.58 91.1301 108.54C90.3701 108.53 87.2001 108.74 88.1001 110.28C88.7001 111.31 91.5101 110.95 92.4901 111C96.2201 111.18 99.9501 111.3 103.69 111.37C105.81 111.41 107.93 111.43 110.05 111.43Z" fill="url(#paint2_linear)"/>
<path d="M110.05 111.43C111.97 111.43 113.93 111.41 115.76 110.82C115.9 110.39 115.64 109.9 115.26 109.64C114.88 109.38 114.42 109.3 113.96 109.24C112.42 109.04 110.86 108.99 109.3 108.94C103.25 108.76 97.1901 108.58 91.1301 108.54C90.3701 108.53 87.2001 108.74 88.1001 110.28C88.7001 111.31 91.5101 110.95 92.4901 111C96.2201 111.18 99.9501 111.3 103.69 111.37C105.81 111.41 107.93 111.43 110.05 111.43Z" fill="url(#paint3_linear)"/>
<path d="M114.98 50.18C114.98 50.18 115.32 44.82 105.61 45.2C105.42 45.21 105.24 45.21 105.06 45.22C104.99 45.26 104.93 45.29 104.86 45.33C104.72 45.69 104.6 46.05 104.51 46.42C104.48 46.52 104.46 46.68 104.43 46.83C104.36 47.41 104.38 47.15 104.43 46.83C104.44 46.71 104.46 46.56 104.48 46.37C104.45 46.61 104.4 46.85 104.37 47.08C104.07 49.22 104.14 51.38 103.95 53.52C103.79 55.35 103.42 57.18 103.02 58.99C103.4 58.97 103.83 58.98 104.07 59.07C104.56 59.25 104.79 103.65 103.95 106.41L107.81 106.45C107.82 106.46 115.3 60.86 114.98 50.18Z" fill="#D9924E"/>
<path d="M104.38 25.25C103.25 25.09 102.05 25.68 101.5 26.68C101.15 27.32 101.06 28.07 100.97 28.8C100.65 31.39 100.24 33.97 99.7501 36.54C99.4201 38.28 99.38 41.74 96.92 41.91C96 41.98 95.0501 41.28 94.1401 41.14C92.6501 40.9 91.2501 40.82 89.8101 40.3C88.6501 39.88 87.8801 39.26 87.0101 38.42C86.4901 37.91 85.7601 36.9 85.0601 36.71C84.5601 36.57 83.93 37.15 84.24 37.56C83.62 37.19 82.7301 37.78 82.7001 38.51C82.6401 39.9 85.38 40.69 86.35 41.29C87.85 42.23 89.3301 43.22 90.9601 43.92C93.5301 45.02 96.31 45.64 99.1 45.69C99.59 45.7 100.11 45.68 100.53 45.43C101.43 44.88 101.91 43.59 102.6 42.79C103.23 42.05 103.57 41.56 103.86 40.6C104.66 37.96 105.35 35.25 105.87 32.54C106.36 30.26 108.05 25.79 104.38 25.25Z" fill="#EADDD0"/>
<path d="M93.0601 66.12C93.1201 67.83 93.24 69.54 93.35 71.25C93.52 73.81 93.69 76.37 93.85 78.93C93.9 79.75 93.98 80.62 94.48 81.27C94.53 81.34 94.59 81.4 94.67 81.43C94.94 81.53 95.1501 81.19 95.2401 80.92C96.3101 77.7 97.89 74.66 99.92 71.94C100.44 71.25 101 70.56 101.75 70.13C102.31 69.81 102.95 69.64 103.59 69.48C104.85 69.16 106.12 68.84 107.38 68.52C108.12 68.33 108.89 68.13 109.47 67.64C109.93 67.25 110.23 66.71 110.52 66.18C112 63.51 113.49 60.81 114.24 57.85C114.79 55.69 114.93 53.45 114.89 51.23C114.89 51.01 114.88 50.78 114.8 50.58C114.69 50.3 114.45 50.08 114.2 49.91C113.25 49.28 112.04 49.2 110.9 49.15C106.57 48.96 102.14 48.87 97.9001 49.88C96.5901 50.19 94.37 50.51 93.73 51.9C92.95 53.6 93.19 56.24 93.1 58.08C92.97 60.75 92.9501 63.44 93.0601 66.12Z" fill="#D9924E"/>
<path d="M101.91 63.15C99.49 62.82 97.0601 62.5 94.6401 62.17C94.5201 61.86 95.1201 62.18 95.0801 62.5C93.8101 72.63 94.3001 82.92 95.3101 93.11C95.7501 97.5 95.7801 101.91 95.3201 106.29C96.3201 106.4 98.0401 106.55 99.0301 106.66C100.87 93.01 101.98 79.32 103.82 65.67C103.91 64.98 103.97 64.18 103.44 63.68C103.05 63.31 102.46 63.22 101.91 63.15Z" fill="#D9924E"/>
<path d="M98.76 18.45C100.21 18.4 101.69 17.42 103.25 17.1C102.84 15.84 103.33 14.48 103.46 13.16C103.64 11.37 103.14 9.58999 102.62 7.87999C102.2 6.49999 101.73 5.06999 100.74 4.00999C100.54 3.79999 100.31 3.59998 100.04 3.52998C99.8 3.46998 99.55 3.50999 99.31 3.53999C97.6 3.79999 92.85 4 92.4 5.92C91.78 8.55 93.59 12.04 94.61 14.37C95.09 15.47 95.58 16.59 96.42 17.44C97.18 18.23 97.97 18.48 98.76 18.45Z" fill="#EADDD0"/>
<path d="M115.34 56.09L115.37 56.06C115.39 56.04 115.4 56.02 115.42 56.01C115.46 55.95 115.5 55.9 115.54 55.84C116.05 55.06 116.49 54.24 116.94 53.43C117.78 43.97 116.71 34.42 113.74 25.12C112.81 22.2 111.89 18.98 108.4 16.98C108.22 16.88 108.03 16.78 107.81 16.74C107.52 16.69 107.22 16.77 106.94 16.84C105.06 17.32 103.18 17.8 101.29 18.29C100.92 18.39 100.54 18.48 100.16 18.57C99.76 18.66 99.36 18.74 98.95 18.8C98.25 18.9 95.5 19.56 95.4 20.22C95.16 21.91 94.94 23.6 94.75 25.3C94.27 29.49 93.91 33.67 93.92 37.87C93.93 42.06 93.55 46.24 92.86 50.39C92.81 50.71 92.56 52.4 92.26 54.13C92.28 54.16 92.29 54.19 92.31 54.22C92.55 54.68 92.81 55.12 93.1 55.55C93.13 55.59 93.18 55.66 93.23 55.74C93.26 55.77 93.28 55.8 93.3 55.82C93.62 56.19 93.98 56.54 94.35 56.87C94.38 56.9 94.43 56.94 94.49 57C93.98 56.52 94.52 57.01 94.67 57.11C95.06 57.37 95.46 57.61 95.87 57.82C95.97 57.87 96.39 58.05 96.43 58.07C96.47 58.09 96.52 58.1 96.56 58.12C102.46 57.87 108.35 57.46 114.2 56.87C114.56 56.58 114.95 56.29 115.34 56.09Z" fill="#E8E8E8"/>
<path d="M95.5802 105.91C95.5202 105.91 95.4602 105.91 95.4002 105.92C95.3202 105.94 95.2701 105.99 95.2201 106.03C95.0101 106.24 94.8502 106.47 94.7602 106.72C94.6802 106.95 94.6601 107.2 94.4901 107.4C94.3001 107.63 93.9501 107.77 93.6001 107.88C92.7101 108.17 91.7502 108.37 90.7802 108.46C90.5602 108.48 90.3402 108.5 90.1402 108.56C89.5802 108.75 89.4401 109.24 89.3701 109.67C89.3501 109.79 89.3401 109.94 89.4901 110.01C89.5701 110.05 89.6702 110.05 89.7702 110.05C92.5702 110.04 93.7601 110.04 96.5501 110.04C97.2301 110.04 97.9401 110.02 98.6001 109.9C98.6901 109.88 98.7801 109.87 98.8501 109.82C98.9201 109.77 98.9501 109.7 98.9801 109.63C99.3501 108.67 99.3901 107.62 99.3101 106.63C99.2801 106.32 99.2301 106.07 98.7401 106C98.0401 105.9 98.8101 105.98 98.1001 105.96C97.2701 105.95 96.4202 105.93 95.5802 105.91Z" fill="black"/>
<path d="M107.67 8.57C107.68 7.71 107.18 6.92999 106.76 6.17999C106.06 4.92999 105.5 3.57999 104.64 2.42999C103.78 1.27999 102.51 0.319992 101.07 0.279992C100.47 0.259992 99.88 0.400002 99.3 0.540002C96.82 1.14 94.32 1.74999 92.06 2.92999C91.78 3.07999 91.49 3.24 91.31 3.51C91.15 3.74 91.1 4.02999 91.05 4.30999C90.98 4.69999 90.9101 5.09998 90.8401 5.48998C90.8001 5.73998 90.75 5.99 90.8 6.23C90.95 6.98 91.83 7.30998 92.6 7.35998C93.36 7.39998 94.11 7.3 94.86 7.19C95.58 7.09 97.28 6.49001 97.86 7.14001C98.15 7.46001 98.06 8 98.26 8.38C98.5 8.85 98.95 9.12998 99.25 9.54998C99.56 9.93998 99.78 10.48 99.55 10.92C99.97 10.67 100.49 10.59 100.97 10.71C101.14 10.75 101.31 10.82 101.42 10.95C101.63 11.21 101.54 11.61 101.31 11.85C101.08 12.09 100.75 12.2 100.43 12.3C101.79 13.61 102.29 15.74 101.66 17.53C102.7 17.42 103.57 16.7 104.29 15.94C104.94 15.25 105.54 14.5 105.95 13.65C106.14 13.25 106.29 12.84 106.44 12.43C106.73 11.61 107.03 10.78 107.32 9.95998C107.5 9.49998 107.66 9.04 107.67 8.57Z" fill="#333333"/>
<path d="M104.27 106C104.21 106 104.15 106 104.09 106.01C104.01 106.03 103.96 106.08 103.91 106.12C103.7 106.33 103.54 106.56 103.45 106.81C103.37 107.04 103.35 107.29 103.18 107.49C102.99 107.72 102.64 107.86 102.29 107.97C101.4 108.26 100.44 108.46 99.4701 108.55C99.2501 108.57 99.0301 108.59 98.8301 108.65C98.2701 108.84 98.1301 109.33 98.0601 109.76C98.0401 109.88 98.0301 110.03 98.1801 110.1C98.2601 110.14 98.3601 110.14 98.4601 110.14C101.26 110.13 102.45 110.13 105.24 110.13C105.92 110.13 106.63 110.11 107.29 109.99C107.38 109.97 107.47 109.96 107.54 109.91C107.61 109.86 107.64 109.79 107.67 109.72C108.04 108.76 108.08 107.71 108 106.72C107.97 106.41 107.92 106.16 107.43 106.09C106.73 105.99 107.5 106.07 106.79 106.05C105.95 106.04 105.11 106.02 104.27 106Z" fill="black"/>
<path d="M84.8 39.32C84.51 39.9 84.1801 40.47 83.8201 41.01C83.7701 41.09 83.7101 41.17 83.6201 41.19C83.5301 41.22 83.43 41.17 83.35 41.13C82.38 40.65 81.4201 40.17 80.4501 39.7C80.6801 37.42 80.5501 34.66 81.2101 32.49C81.3001 32.18 86.0601 33.01 86.3801 33.88C86.6901 34.74 85.8101 36.81 85.5201 37.64C85.3201 38.21 85.08 38.77 84.8 39.32Z" fill="#C7B299"/>
<path d="M80.9001 32.73C81.0401 32.76 81.1801 32.77 81.3201 32.78C81.6201 32.81 81.9101 32.87 82.2001 32.93C83.6301 33.26 85.0201 33.74 86.3901 34.26C86.4801 34.29 86.57 34.33 86.67 34.32C86.82 34.3 86.93 34.16 86.97 34.02C87.01 33.87 86.99 33.72 86.97 33.57C86.97 33.54 86.9601 33.51 86.9401 33.49C86.9201 33.47 86.9001 33.46 86.8701 33.45C86.8001 33.42 86.73 33.39 86.66 33.37C86.34 33.25 86.01 33.15 85.68 33.06C84.25 32.66 82.8101 32.29 81.3701 31.95C81.3001 31.93 81.2101 31.92 81.1501 31.96C81.0401 32.04 80.9801 32.24 80.9501 32.36C80.9001 32.46 80.7401 32.7 80.9001 32.73Z" fill="#534741"/>
<path d="M80.8301 36.81L85.11 38.67L85.97 36.41L80.8301 34.32V36.81Z" fill="#5B8C87"/>
<path d="M96.8901 11.18C96.8701 11.09 96.7601 11 96.6501 11.01C95.5801 11.12 94.53 11.36 93.5 11.62C93.14 11.71 93.3001 12.24 93.6501 12.14C94.5801 11.9 95.5301 11.72 96.4601 11.51C96.5801 11.99 96.68 12.48 96.74 12.98C96.77 13.2 96.7801 13.42 96.7801 13.64C96.7901 14.04 96.19 14.07 95.93 14.12C95.61 14.18 95.29 14.2 94.97 14.21C94.5 14.23 94.47 14.02 94.29 13.71C94.02 13.24 93.81 12.75 93.62 12.25C93.56 12.09 93.31 12.16 93.35 12.32C93.56 13.04 93.83 13.77 94.23 14.42C94.52 14.89 95.6 14.6 96.04 14.54C96.53 14.47 97.16 14.36 97.22 13.8C97.33 12.95 97.1101 12.01 96.8901 11.18Z" fill="#333333"/>
<path d="M99.4501 10.24C98.5301 10.59 97.6501 11.12 96.7701 11.56C96.6001 11.64 96.7201 11.92 96.9001 11.86C97.8301 11.55 98.8301 11.29 99.7201 10.88C100.08 10.72 99.8201 10.1 99.4501 10.24Z" fill="#333333"/>
<path d="M107.41 25.32C107.05 23.94 105.55 21.06 103.97 23.13C103.49 23.76 103.37 24.6 103.28 25.39C102.51 31.76 101.73 38.12 100.96 44.49C100.56 47.81 100.12 51.24 98.4001 54.1C98.1201 54.56 97.8101 55.01 97.6801 55.53C97.5401 56.05 97.6201 56.66 98.0301 57.01C97.4701 57.71 97.9301 59.23 98.9601 59.15C99.1801 59.13 99.3801 59.04 99.5601 58.91C100.59 58.2 100.33 56.88 100.57 55.78C100.89 54.28 101.35 52.82 101.81 51.37C103.57 45.76 105.78 40.29 106.96 34.56C107.58 31.5 108.2 28.33 107.41 25.32Z" fill="#EADDD0"/>
<path d="M103.41 21.88C103.01 21.97 102.6 22.07 102.3 22.34C101.91 22.69 101.78 23.24 101.67 23.75C100.47 29.51 99.5601 35.33 98.9401 41.19C100.92 41.69 102.91 42.19 104.89 42.69C107.41 37.21 108.54 31.1 108.14 25.09C108.07 24.02 107.89 22.83 107.06 22.15C106.06 21.36 104.64 21.6 103.41 21.88Z" fill="#E8E8E8"/>
<path d="M21.47 110.58C23.48 110.52 25.49 110.45 27.49 110.3C28.46 110.23 29.4601 110.13 30.34 109.71C30.82 109.48 31.31 108.97 31.09 108.49C30.91 108.09 30.37 108.03 29.92 108.03C22.67 108.02 15.41 108.01 8.17001 108.49C6.86001 108.58 5.37002 108.78 4.62002 109.86C3.70002 111.2 6.45004 110.82 7.02004 110.83C8.61004 110.85 10.2001 110.85 11.7801 110.83C15.0201 110.79 18.24 110.69 21.47 110.58Z" fill="url(#paint4_linear)"/>
<path d="M21.47 110.58C23.48 110.52 25.49 110.45 27.49 110.3C28.46 110.23 29.4601 110.13 30.34 109.71C30.82 109.48 31.31 108.97 31.09 108.49C30.91 108.09 30.37 108.03 29.92 108.03C22.67 108.02 15.41 108.01 8.17001 108.49C6.86001 108.58 5.37002 108.78 4.62002 109.86C3.70002 111.2 6.45004 110.82 7.02004 110.83C8.61004 110.85 10.2001 110.85 11.7801 110.83C15.0201 110.79 18.24 110.69 21.47 110.58Z" fill="url(#paint5_linear)"/>
<path d="M36.1501 38.51C36.3401 38.68 36.5301 38.84 36.7701 38.91C37.1001 39 37.4501 38.89 37.7701 38.78C37.9901 38.71 38.2001 38.63 38.4201 38.56C38.5001 38.53 38.5901 38.5 38.6401 38.42C38.6901 38.34 38.6801 38.25 38.6701 38.15C38.4601 36.13 38.0801 34.13 37.5201 32.18C36.6301 32.59 35.7501 33 34.8601 33.41C34.3801 33.63 32.7701 34.07 32.7401 34.65C32.7101 35.24 33.8501 36.2 34.2201 36.6C34.8301 37.27 35.4701 37.91 36.1501 38.51Z" fill="white"/>
<path d="M36.5601 31.81C36.8201 31.7 37.1001 31.59 37.3901 31.63C37.6701 31.67 37.9501 31.92 37.9101 32.2C37.8801 32.4 36.8201 32.88 36.6301 32.99C36.1701 33.26 35.7001 33.51 35.2201 33.75C34.7401 33.99 34.2501 34.21 33.7601 34.42C33.4901 34.54 32.9001 34.91 32.5801 34.8C31.4101 34.39 33.4501 33.27 33.8001 33.07C34.6901 32.59 35.6201 32.2 36.5601 31.81Z" fill="#333333"/>
<path d="M26.2401 107.13C25.8101 107.16 25.3702 107.19 24.9502 107.08C24.5302 106.97 24.1301 106.68 24.0001 106.27C23.8901 105.92 23.9402 105.46 23.6402 105.26C23.5702 105.21 23.4902 105.19 23.4002 105.18C23.3602 97.85 23.5401 93.62 23.4901 86.14C23.8601 83.65 23.6402 81.34 23.5802 78.93C23.4002 71.32 23.2301 63.71 23.0501 56.1C23.0301 55.09 22.9901 54.04 22.4901 53.1C21.6801 51.58 19.8801 50.72 18.1901 50.06C13.1701 48.1 7.49012 45.3 6.11012 51.6C5.74012 53.27 5.44014 54.95 5.19014 56.65C5.01014 57.86 4.87014 59.12 5.31014 60.32C6.06014 62.36 7.45016 67.37 9.21016 68.85C13.8002 72.71 15.8001 77.07 17.3101 82.19C16.8401 83.9 17.3901 86.32 17.6001 87.64C18.5801 93.97 20.6002 99.86 21.5902 106.19C21.1702 106.97 20.9901 107.88 21.1101 108.76C21.1301 108.94 21.1701 109.12 21.2901 109.25C21.4601 109.44 21.7401 109.48 21.9901 109.5C22.7001 109.55 23.4101 109.57 24.1201 109.56C24.6701 109.55 25.2601 109.5 25.6801 109.14C26.2301 108.68 26.2601 107.86 26.2401 107.13Z" fill="#998675"/>
<path d="M20.2601 63.84C18.8501 60.73 13.6901 58.64 8.82006 62.19C5.91006 64.31 8.12007 66.67 8.76007 68.77C9.54007 71.32 10.06 73.95 10.3 76.62C10.77 81.77 10.2401 87.11 8.70007 92.46C7.68007 96.02 7.66007 99.92 6.95007 103.47C6.56007 105.46 5.32004 108.1 5.61004 110.08C6.71004 110.09 7.81008 110.1 8.90008 110.11C9.87008 110.12 10.9001 110.11 11.7101 109.58C12.5201 109.05 12.92 107.79 12.24 107.1C11.57 107.32 10.86 107.54 10.17 107.38C7.14004 106.66 11.1001 99.81 11.6801 98.3C14.1501 91.86 16.62 85.42 18.41 78.98C19.73 74.27 22.2001 68.09 20.2601 63.84Z" fill="#998675"/>
<path d="M21.19 29.51C22.39 32.46 23.59 35.4 24.79 38.35C25.12 39.16 25.45 40.02 25.29 40.87C25.01 42.38 23.36 43.19 21.87 43.53C18.92 39.34 15.81 35.26 12.56 31.3C10.71 29.05 7.83004 23.85 12.08 22.28C16.9 20.51 19.76 25.99 21.19 29.51Z" fill="#ACB18F"/>
<path d="M32.0001 25.03C32.3901 24.45 32.9501 24.71 33.4401 25.21C32.0701 30.17 30.8501 35.17 29.7801 40.2C29.4501 41.76 29.0301 43.48 27.7001 44.38C27.1401 44.76 26.46 44.95 25.79 45.06C24.58 45.27 23.1201 45.16 22.4401 44.14C21.4701 42.68 22.6701 41.26 23.6301 40.24C24.7601 39.05 25.2401 38.28 25.9401 36.66C27.5501 32.92 29.7301 28.43 32.0001 25.03Z" fill="#EDD082"/>
<path d="M34.29 24.8C34.4 24.66 34.46 24.49 34.53 24.32C34.7 23.89 34.87 23.45 35.04 23.02C35.12 22.82 35.2 22.62 35.21 22.41C35.22 22.2 35.16 21.97 35 21.83C34.85 21.7 34.64 21.67 34.44 21.71C34.24 21.75 34.08 21.86 33.92 21.98C33.57 22.25 33.28 22.6 33.08 23C32.92 23.32 32.82 23.67 32.57 23.92C32.46 24.03 32.33 24.12 32.23 24.25C32.08 24.44 32.05 24.71 32.14 24.93C32.47 25.66 33.91 25.3 34.29 24.8Z" fill="#F2D6C9"/>
<path d="M26.48 64.88C25.98 54.18 24.87 43.51 23.42 32.88C22.89 28.98 22.25 24.34 18.17 22.52C14.39 20.83 9.73008 20.4 7.27008 24.2C5.89008 26.33 5.58004 28.91 5.29004 31.41C3.55004 46.7 1.81007 61.99 0.0700684 77.28C1.98007 77.39 24.8401 80.78 24.9401 79.35C24.9401 79.33 24.9401 79.31 24.9401 79.3C25.0901 79.29 25.23 79.26 25.36 79.2C25.87 78.97 26.02 78.36 26.11 77.83C26.78 73.55 26.68 69.2 26.48 64.88Z" fill="#EDD082"/>
<path d="M33.5202 36.84C33.5702 36.73 33.6101 36.61 33.6801 36.51C33.8301 36.3 34.0901 36.22 34.3501 36.19C34.6001 36.16 34.8601 36.18 35.1101 36.14C35.8901 36 36.5301 35.23 37.3101 35.35C37.5501 35.39 37.7701 35.51 37.9701 35.65C38.2301 35.84 38.4701 36.09 38.5401 36.4C38.6401 36.89 38.2901 37.36 37.9701 37.74C37.7901 37.95 37.6001 38.17 37.3601 38.3C37.1601 38.41 36.9302 38.45 36.7002 38.5C36.1502 38.63 35.6001 38.83 35.1601 39.21C34.8001 39.52 34.5001 39.95 34.0501 40.06C33.2301 40.26 32.4601 39.36 32.3701 38.62C32.2601 37.86 33.2402 37.47 33.5202 36.84Z" fill="#F2D6C9"/>
<path d="M34.0701 39.47C33.7101 38.75 33.3501 38.03 33.0001 37.31C31.8701 37.5 31.0201 38.4 30.2101 39.2C29.0901 40.31 27.8801 41.33 26.5901 42.25C25.8301 42.79 24.96 43.31 24.04 43.17C22.92 43 22.2001 41.91 21.6201 40.93C19.4601 37.24 17.3001 33.54 15.1401 29.85C13.4301 26.93 11.52 28 10.29 30.62C9.18004 33.01 10.6101 35.7 11.7101 37.86C13.1301 40.65 14.7 43.36 16.42 45.99C17.43 47.53 18.6401 49.15 20.4401 49.56C21.3001 49.76 22.2201 49.65 23.0701 49.4C25.8201 48.62 28.0001 46.57 30.0301 44.55C31.3401 43.24 32.64 41.9 33.91 40.55C34.05 40.4 34.2 40.24 34.23 40.03C34.25 39.85 34.1601 39.65 34.0701 39.47Z" fill="#EDD082"/>
<path d="M21.82 7.79999C21.37 6.45999 20.66 4.80999 19.21 4.45999C17.64 4.08999 15.4201 5.12 14.2801 6.12C12.8701 7.35 11.99 9.09001 11.5 10.89C10.96 12.85 10.87 15.03 11.75 16.87C12.63 18.71 14.64 20.09 16.65 19.79C18 19.59 19.1501 18.7 20.0301 17.66C22.2901 14.99 22.93 11.1 21.82 7.79999Z" fill="#F2D6C9"/>
<path d="M15.07 12.83C14.62 12.04 13.26 12.08 12.86 12.89C12.56 13.49 13.64 15.93 13.8 16.68C14.22 18.67 12.08 32.25 12.63 34.22C9.42004 34.29 6.18003 33.94 3.12003 32.96C2.81003 32.86 2.48004 32.74 2.26004 32.49C1.98004 32.16 1.97002 31.68 1.99002 31.25C2.23002 24.81 8.17001 2.88999 16.16 3.07999C17.14 3.09999 18.11 3.31999 19.07 3.54999C19.7 3.69999 20.3301 3.87001 20.9001 4.19001C22.0601 4.86001 22.78 6.13001 23.07 7.44001C23.37 8.75001 23.29 10.11 23.22 11.44C23.2 11.85 18.41 11.43 17.95 11.36C17.43 11.28 16.46 10.87 15.94 11.09C15.34 11.34 15.27 12.29 15.07 12.83Z" fill="#534741"/>
<path opacity="0.19" d="M8.09003 54.97C6.71003 54.7 5.44997 54.03 4.21997 53.36C4.41997 52.76 4.62 52.16 4.81 51.56C10.45 53.59 16.86 53.41 22.38 51.07C22.47 52.02 22.55 52.97 22.64 53.92C21.14 54.24 19.61 54.36 18.09 54.49C16.01 54.66 13.94 54.83 11.86 55.01C10.61 55.11 9.33003 55.21 8.09003 54.97Z" fill="white"/>
<defs>
<linearGradient id="paint0_linear" x1="44.6849" y1="107.498" x2="75.1598" y2="107.498" gradientUnits="userSpaceOnUse">
<stop stop-color="#4D4D4D"/>
<stop offset="1"/>
</linearGradient>
<linearGradient id="paint1_linear" x1="44.6849" y1="107.498" x2="75.1598" y2="107.498" gradientUnits="userSpaceOnUse">
<stop/>
<stop offset="1"/>
</linearGradient>
<linearGradient id="paint2_linear" x1="87.9568" y1="109.987" x2="115.803" y2="109.987" gradientUnits="userSpaceOnUse">
<stop stop-color="#4D4D4D"/>
<stop offset="1"/>
</linearGradient>
<linearGradient id="paint3_linear" x1="87.9568" y1="109.987" x2="115.803" y2="109.987" gradientUnits="userSpaceOnUse">
<stop/>
<stop offset="1"/>
</linearGradient>
<linearGradient id="paint4_linear" x1="4.43992" y1="109.454" x2="31.1404" y2="109.454" gradientUnits="userSpaceOnUse">
<stop stop-color="#4D4D4D"/>
<stop offset="1"/>
</linearGradient>
<linearGradient id="paint5_linear" x1="4.43992" y1="109.454" x2="31.1404" y2="109.454" gradientUnits="userSpaceOnUse">
<stop/>
<stop offset="1"/>
</linearGradient>
</defs>
</svg>
