<svg width="347" height="297" viewBox="0 0 347 297" fill="none" xmlns="http://www.w3.org/2000/svg">
<path d="M11.6084 98.6724C10.0839 98.6722 8.5743 98.9762 7.16579 99.5673C5.75728 100.158 4.47748 101.025 3.39949 102.117C2.3215 103.209 1.46644 104.506 0.883145 105.933C0.299853 107.36 -0.000243014 108.89 1.47653e-07 110.434V185.582C8.34028e-08 187.127 0.300269 188.656 0.883647 190.083C1.46702 191.51 2.32209 192.807 3.40004 193.899C4.47798 194.991 5.75768 195.858 7.16608 196.449C8.57448 197.04 10.084 197.344 11.6084 197.344C13.1329 197.344 14.6424 197.04 16.0508 196.449C17.4592 195.858 18.7389 194.991 19.8168 193.899C20.8948 192.807 21.7498 191.51 22.3332 190.083C22.9166 188.656 23.2169 187.127 23.2169 185.582V110.434C23.2171 108.89 22.917 107.36 22.3337 105.933C21.7504 104.506 20.8953 103.209 19.8174 102.117C18.7394 101.025 17.4596 100.158 16.0511 99.5673C14.6426 98.9762 13.1329 98.6722 11.6084 98.6724Z" fill="black"/>
<path d="M57.8512 53.4027C56.3267 53.4025 54.8171 53.7071 53.4086 54.2993C52.0001 54.8915 50.7203 55.7595 49.6423 56.8539C48.5643 57.9483 47.7092 59.2476 47.1259 60.6776C46.5427 62.1075 46.2426 63.6401 46.2428 65.1878V230.835C46.2428 233.961 47.4658 236.958 49.6428 239.168C51.8198 241.378 54.7725 242.62 57.8512 242.62C60.93 242.62 63.8826 241.378 66.0596 239.168C68.2366 236.958 69.4597 233.961 69.4597 230.835V65.1878C69.4599 63.6401 69.1598 62.1075 68.5765 60.6775C67.9932 59.2476 67.1381 57.9483 66.0602 56.8539C64.9822 55.7595 63.7024 54.8914 62.2939 54.2993C60.8854 53.7071 59.3757 53.4025 57.8512 53.4027Z" fill="black"/>
<path d="M104.094 1.50605e-07C102.569 -0.000245556 101.06 0.305863 99.6513 0.900822C98.2428 1.49578 96.963 2.36794 95.885 3.46749C94.807 4.56704 93.9519 5.87244 93.3686 7.30912C92.7853 8.7458 92.4852 10.2856 92.4855 11.8406V284.174C92.4855 287.315 93.7085 290.326 95.8855 292.547C98.0625 294.767 101.015 296.015 104.094 296.015C107.173 296.015 110.125 294.767 112.302 292.547C114.479 290.326 115.702 287.315 115.702 284.174V11.8406C115.703 10.2856 115.402 8.74578 114.819 7.3091C114.236 5.87242 113.381 4.56704 112.303 3.46749C111.225 2.36794 109.945 1.49577 108.537 0.900809C107.128 0.305852 105.618 -0.000247874 104.094 1.50605e-07V1.50605e-07Z" fill="black"/>
<path d="M150.337 53.4027C148.812 53.4025 147.302 53.7071 145.894 54.2993C144.485 54.8915 143.206 55.7595 142.128 56.8539C141.05 57.9483 140.195 59.2476 139.611 60.6776C139.028 62.1075 138.728 63.6401 138.728 65.1878V230.835C138.728 233.961 139.951 236.958 142.128 239.168C144.305 241.378 147.258 242.62 150.337 242.62C153.415 242.62 156.368 241.378 158.545 239.168C160.722 236.958 161.945 233.961 161.945 230.835V65.1878C161.945 63.6401 161.645 62.1075 161.062 60.6775C160.479 59.2476 159.623 57.9483 158.545 56.8539C157.468 55.7595 156.188 54.8914 154.779 54.2993C153.371 53.7071 151.861 53.4025 150.337 53.4027Z" fill="black"/>
<path d="M196.579 98.6724C195.055 98.6722 193.545 98.9762 192.137 99.5672C190.728 100.158 189.448 101.025 188.37 102.117C187.292 103.209 186.437 104.506 185.854 105.933C185.271 107.36 184.971 108.89 184.971 110.434V185.582C184.971 188.702 186.194 191.693 188.371 193.899C190.548 196.105 193.501 197.344 196.579 197.344C199.658 197.344 202.611 196.105 204.788 193.899C206.965 191.693 208.188 188.702 208.188 185.582V110.434C208.188 108.89 207.888 107.36 207.305 105.933C206.721 104.506 205.866 103.209 204.788 102.117C203.71 101.025 202.431 100.158 201.022 99.5673C199.614 98.9762 198.104 98.6722 196.579 98.6724Z" fill="black"/>
<path d="M242.822 53.4027C241.297 53.4025 239.788 53.7071 238.379 54.2993C236.971 54.8915 235.691 55.7595 234.613 56.8539C233.535 57.9483 232.68 59.2476 232.097 60.6776C231.513 62.1075 231.213 63.6401 231.214 65.1878V230.835C231.214 233.961 232.437 236.958 234.614 239.168C236.791 241.378 239.743 242.62 242.822 242.62C245.901 242.62 248.853 241.378 251.03 239.168C253.207 236.958 254.43 233.961 254.43 230.835V65.1878C254.431 63.6401 254.131 62.1075 253.547 60.6775C252.964 59.2476 252.109 57.9483 251.031 56.8539C249.953 55.7595 248.673 54.8915 247.265 54.2993C245.856 53.7071 244.347 53.4025 242.822 53.4027Z" fill="black"/>
<path d="M289.065 98.6724C287.54 98.6722 286.031 98.9762 284.622 99.5673C283.214 100.158 281.934 101.025 280.856 102.117C279.778 103.209 278.923 104.506 278.34 105.933C277.756 107.36 277.456 108.89 277.456 110.434V185.582C277.456 188.702 278.679 191.693 280.856 193.899C283.033 196.105 285.986 197.344 289.065 197.344C292.144 197.344 295.096 196.105 297.273 193.899C299.45 191.693 300.673 188.702 300.673 185.582V110.434C300.673 108.89 300.373 107.36 299.79 105.933C299.207 104.506 298.352 103.209 297.274 102.117C296.196 101.025 294.916 100.158 293.507 99.5673C292.099 98.9762 290.589 98.6722 289.065 98.6724Z" fill="black"/>
<rect x="323.699" y="135.821" width="23.2169" height="23.2169" rx="11.6084" fill="black"/>
</svg>
