<svg width="166" height="144" viewBox="0 0 166 144" fill="none" xmlns="http://www.w3.org/2000/svg">
<path d="M145.371 142.13C143.701 142.46 141.481 142.6 140.501 142.65C135.211 142.93 129.921 143.21 124.641 143.49C122.071 143.63 119.481 143.76 116.911 143.73C115.221 143.71 113.491 143.6 112.061 143.21C110.621 142.82 109.521 142.1 109.591 141.29C109.661 140.44 111.001 139.67 112.591 139.25C114.181 138.83 116.001 138.69 117.781 138.59C127.181 138.04 136.681 138.25 145.751 139.21C147.151 139.36 148.741 139.61 149.161 140.26C149.971 141.53 147.981 142 145.371 142.13Z" fill="url(#paint0_linear)"/>
<path opacity="0.22" d="M145.371 142.13C143.701 142.46 141.481 142.6 140.501 142.65C135.211 142.93 129.921 143.21 124.641 143.49C122.071 143.63 119.481 143.76 116.911 143.73C115.221 143.71 113.491 143.6 112.061 143.21C110.621 142.82 109.521 142.1 109.591 141.29C109.661 140.44 111.001 139.67 112.591 139.25C114.181 138.83 116.001 138.69 117.781 138.59C127.181 138.04 136.681 138.25 145.751 139.21C147.151 139.36 148.741 139.61 149.161 140.26C149.971 141.53 147.981 142 145.371 142.13Z" fill="url(#paint1_linear)"/>
<path d="M140.441 57.27C141.601 57.45 142.521 58.4 142.991 59.47C143.471 60.54 143.591 61.73 143.731 62.89C144.121 65.91 144.741 68.9 145.601 71.83C145.711 72.21 145.841 72.61 146.151 72.87C146.401 73.08 146.731 73.16 147.051 73.23C150.471 74.01 153.891 74.8 157.311 75.58C157.371 75.68 157.411 75.79 157.441 75.9C157.981 75.86 158.551 75.9 158.971 75.87C159.101 75.86 159.231 75.86 159.351 75.92C159.461 75.98 159.541 76.1 159.631 76.18C159.941 76.46 160.421 76.39 160.831 76.33C161.241 76.27 161.761 76.29 161.961 76.65C162.041 76.79 162.061 76.97 162.061 77.13C162.091 77.67 162.051 78.26 161.681 78.66C161.491 78.86 161.241 78.99 160.981 79.07C159.651 79.48 158.271 78.79 156.921 78.52C156.671 78.47 156.411 78.43 156.201 78.28C156.151 78.24 156.131 78.17 156.091 78.12C155.281 78.44 154.351 78.41 153.461 78.35C151.021 78.18 148.581 78.01 146.181 77.51C144.831 77.23 143.451 76.81 142.401 75.91C140.621 74.39 140.181 71.87 139.731 69.57C139.321 67.4 134.741 56.4 140.441 57.27Z" fill="#FCC9A7"/>
<path d="M132.731 58.71C132.221 57.58 131.321 56.51 130.101 56.31C129.301 56.18 128.501 56.45 127.741 56.71C122.461 58.51 117.171 60.32 112.031 62.5C111.121 62.89 110.201 63.3 109.491 63.98C108.681 64.76 108.231 65.83 107.801 66.86C107.091 68.56 106.381 70.25 105.661 71.95C105.021 73.49 104.201 76.7 103.801 78.32C103.761 78.47 103.741 78.58 103.721 78.68C103.461 79.08 103.291 79.69 103.111 80.1C102.861 80.65 102.611 81.19 102.361 81.74C102.171 82.15 101.981 82.58 102.001 83.03C102.031 83.71 102.601 84.31 103.271 84.44C103.941 84.57 104.661 84.26 105.081 83.73C105.281 83.48 105.471 83.15 105.791 83.13C105.871 83.12 105.961 83.14 106.041 83.12C106.231 83.07 106.321 82.86 106.381 82.67C106.671 81.73 106.861 80.76 106.951 79.79C106.951 79.74 106.961 79.7 106.961 79.65C107.021 79.53 107.081 79.38 107.161 79.18C107.821 77.52 109.661 74.26 110.321 72.6C110.971 70.96 111.711 69.21 113.221 68.28C114.181 67.69 115.321 67.52 116.431 67.34C120.501 66.68 124.531 65.78 128.491 64.63C129.511 64.33 130.541 64.01 131.421 63.42C132.301 62.83 133.031 61.92 133.151 60.86C133.241 60.12 133.031 59.38 132.731 58.71Z" fill="#FCC9A7"/>
<path d="M119.931 94.24C119.971 94.56 120.021 94.87 120.071 95.18C120.481 97.9 120.921 100.62 121.291 103.34C121.621 105.78 122.511 109.39 121.141 111.64C120.851 112.12 120.431 112.51 120.001 112.88C117.421 115.07 114.331 116.58 111.171 117.8C110.061 118.23 108.941 118.62 107.811 118.98C106.761 119.32 105.721 119.3 105.721 120.61C105.721 121.37 105.751 121.3 106.191 121.86C106.751 122.57 107.701 122.55 108.531 122.45C112.111 122.03 115.661 121.21 119.101 120C122.631 118.76 126.271 116.92 128.261 113.36C129.771 110.66 130.121 107.35 130.541 104.18C131.061 100.22 131.751 96.28 132.591 92.39C132.901 90.98 133.191 89.36 132.481 88.16C132.031 87.41 131.271 87 130.541 86.65C128.861 85.86 127.091 85.24 125.271 85.14C123.991 85.07 122.681 85.26 121.481 85.8C120.941 86.04 119.511 85.08 119.321 85.68C119.121 86.32 119.281 87.67 119.321 88.36C119.561 92.02 119.331 89.48 119.931 94.24Z" fill="#FCC9A7"/>
<path d="M103.331 120.65C104.011 119.58 105.451 118.97 106.711 119.37C106.121 119.87 105.731 120.65 106.061 121.42C106.381 122.17 107.331 122.59 108.101 122.32C108.761 124.2 108.921 126.26 108.541 128.23C108.461 128.67 108.331 129.14 108.001 129.45C107.461 129.97 106.531 129.85 105.941 129.4C105.341 128.95 105.011 128.24 104.711 127.55C104.221 126.42 103.771 125.28 103.381 124.11C103.161 123.46 102.951 122.8 102.931 122.11C102.911 121.57 103.061 121.08 103.331 120.65Z" fill="#97A8B2"/>
<path d="M143.561 95.92C145.141 98.92 146.741 101.98 147.391 105.31C147.971 108.29 147.761 111.36 147.451 114.38C147.031 118.54 146.441 122.69 145.681 126.81C145.301 128.87 144.881 130.92 144.411 132.96C144.151 134.1 144.031 137.06 142.621 137.4C142.061 137.53 141.471 137.36 140.951 137.13C140.641 136.99 140.341 136.83 140.141 136.56C139.821 136.12 139.861 135.53 139.911 134.99C140.341 130.76 140.851 126.54 141.441 122.32C141.611 121.12 141.781 119.93 141.921 118.73C142.331 115.16 141.661 111.39 139.961 108.19C137.831 104.18 136.051 100.26 132.971 96.81C131.011 94.62 128.781 92.68 126.931 90.4C126.051 89.32 125.171 88.49 125.681 87.06C126.111 85.84 127.151 84.89 128.211 84.19C137.011 78.35 140.471 90.06 143.561 95.92Z" fill="#FCC9A7"/>
<path d="M139.031 138.14C138.851 137.55 138.951 136.97 139.111 136.39C139.191 136.1 139.291 135.81 139.411 135.53C139.501 135.34 139.791 134.98 139.801 134.79C139.751 135.51 140.251 136.22 140.941 136.42C141.521 136.59 142.151 136.42 142.721 136.23C143.081 136.11 143.471 135.97 143.701 135.66C144.161 135.73 144.231 135.87 144.531 136.22C144.771 136.51 145.041 136.77 145.321 137.02C145.871 137.51 146.471 137.92 147.131 138.25C147.881 138.62 148.711 139.37 148.761 140.29C148.801 141.04 148.121 141.67 147.381 141.83C146.651 141.99 145.891 141.79 145.171 141.57C143.991 141.21 142.831 140.81 141.691 140.35C141.051 140.1 140.411 139.82 139.871 139.4C139.461 139.06 139.181 138.62 139.031 138.14Z" fill="#97A8B2"/>
<path d="M131.901 41.48C131.901 38.18 134.781 35.5 138.331 35.5C141.881 35.5 144.761 38.18 144.761 41.48C144.761 42.03 144.671 42.56 144.521 43.07C144.511 43.2 144.511 43.33 144.511 43.47C144.531 44.66 144.471 45.86 144.241 47.04C143.791 49.33 142.601 51.46 140.361 52.76C139.611 53.19 138.761 53.52 137.861 53.52C136.661 53.51 135.561 52.89 134.731 52.13C131.981 49.6 131.741 45.8 131.931 42.21C131.931 41.96 131.901 41.72 131.901 41.48Z" fill="#FCC9A7"/>
<path d="M141.261 52.66C140.961 53.06 140.651 53.47 140.201 53.75C139.671 54.07 138.991 54.16 138.351 54.17C137.561 54.18 136.731 54.08 136.101 53.67C135.651 53.37 134.531 52.48 134.251 52.04C133.291 50.59 132.691 49.59 132.181 47.97C132.031 47.48 131.891 46.97 131.901 46.46C132.091 46.38 132.321 46.51 132.411 46.67C132.501 46.84 132.491 47.03 132.501 47.22C132.541 48.21 133.031 49.14 133.551 50.03C134.001 50.81 135.151 51.49 135.851 52.11C136.551 52.72 137.511 53.16 138.501 53.1C138.631 53.09 138.761 53.07 138.871 53.02C139.111 52.9 139.211 52.64 139.281 52.4C139.351 52.16 139.431 51.9 139.671 51.77C139.901 51.64 140.311 51.76 140.281 52C140.261 52.16 140.081 52.27 140.071 52.43C140.071 52.61 140.331 52.72 140.521 52.67C140.721 52.62 140.861 52.47 140.991 52.33C141.301 51.99 141.601 51.65 141.911 51.31C142.041 51.17 142.191 51.05 142.381 51.13C142.131 51.66 141.631 52.17 141.261 52.66Z" fill="#998675"/>
<path d="M145.151 41.46C145.171 41.55 145.181 41.66 145.131 41.74C145.071 41.83 144.951 41.86 144.841 41.88C144.271 41.96 143.691 41.93 143.141 41.79C142.661 41.67 142.101 41.48 141.701 41.77C141.581 41.86 141.481 41.98 141.371 42.07C140.931 42.42 140.291 42.25 139.741 42.11C138.861 41.87 137.921 41.73 137.051 41.99C135.611 42.42 134.651 44.08 135.001 45.55C134.681 45.52 134.461 45.23 134.221 45.01C133.991 44.79 133.611 44.62 133.361 44.81C133.151 44.98 133.161 45.3 133.201 45.57C133.411 47.29 133.431 49.03 133.261 50.75C133.081 50.06 132.401 49.54 131.701 49.55C131.351 49.55 131.011 49.67 130.651 49.69C130.301 49.71 129.901 49.6 129.731 49.29C129.601 49.03 129.671 48.72 129.771 48.45C129.831 48.29 129.911 48.12 129.831 47.97C129.781 47.87 129.681 47.81 129.581 47.77C129.181 47.6 128.731 47.6 128.321 47.45C127.911 47.3 127.531 46.89 127.651 46.48C127.761 46.1 128.201 45.95 128.561 45.79C128.921 45.63 129.311 45.29 129.181 44.92C129.381 45.05 129.661 44.91 129.791 44.71C129.921 44.51 129.951 44.27 130.011 44.04C130.291 42.98 131.261 42.25 132.221 41.72C135.721 39.75 139.631 37.22 143.561 38.03C144.581 38.25 144.981 40.52 145.151 41.46Z" fill="black"/>
<path d="M140.431 88.59C135.631 88.69 130.821 88.42 126.061 87.78C123.921 87.49 121.671 87.08 120.021 85.68C118.781 87.68 118.881 90.19 118.971 92.54C119.151 97.1 119.161 101.66 118.991 106.21C124.041 106.82 129.091 107.4 134.141 107.96C134.581 105.82 134.711 103.62 134.531 101.45C135.871 103.29 136.831 105.4 137.341 107.62C141.631 106.77 145.791 105.23 149.591 103.07C147.691 98.14 144.751 93.7 141.821 89.3C141.671 89.08 141.511 88.84 141.271 88.71C141.021 88.58 140.721 88.59 140.431 88.59Z" fill="#090909"/>
<path d="M138.302 74.31C137.972 78.45 140.232 82.27 141.662 86.12C142.152 87.45 142.772 88.72 143.312 90.04C143.422 90.32 143.582 91.18 143.562 91.49C143.512 92.17 142.822 92.01 142.242 92.25C139.562 93.32 134.692 93.68 131.852 93.37C128.702 93.02 125.562 92.42 122.492 91.55C121.002 91.13 119.382 90.53 118.642 89.05C118.362 88.49 118.232 87.86 118.142 87.23C117.182 81.02 118.512 74.65 120.362 68.69C121.482 65.08 122.852 61.44 125.302 58.73C127.412 56.39 130.292 54.86 133.292 54.64C136.062 54.43 140.122 55.44 141.842 58.09C142.712 59.43 141.772 60.82 141.242 62.09C140.482 63.91 139.862 65.8 139.382 67.74C138.842 69.88 138.482 72.08 138.302 74.31Z" fill="#EFAB50"/>
<path d="M123.382 62.44C123.252 61.98 123.092 61.53 122.902 61.09C122.642 60.47 122.242 59.79 121.552 59.69C121.292 59.65 121.022 59.7 120.762 59.76C120.052 59.92 119.362 60.12 118.672 60.34C118.562 59.88 118.402 59.43 118.172 59.01C117.682 59.12 117.202 59.28 116.742 59.48C116.922 59.93 117.072 60.4 117.202 60.87C116.562 61.13 115.932 61.4 115.312 61.72C114.892 61.93 114.432 62.22 114.362 62.67C114.322 62.9 114.402 63.13 114.472 63.34C114.712 64.05 114.952 64.75 115.192 65.46C115.312 65.83 115.502 66.25 115.892 66.32C116.072 66.35 116.252 66.3 116.422 66.25C117.292 66 118.162 65.75 119.022 65.48C119.232 66.02 119.412 66.58 119.552 67.14C120.042 67.05 120.542 66.95 121.032 66.86C120.962 66.21 120.762 65.58 120.452 65C121.232 64.72 121.992 64.41 122.742 64.05C122.952 63.95 123.172 63.84 123.312 63.66C123.592 63.33 123.502 62.85 123.382 62.44Z" fill="#333333"/>
<path d="M116.782 65.25C116.892 65.26 117.002 65.22 117.112 65.19C118.362 64.77 119.602 64.35 120.852 63.93C121.292 63.78 121.762 63.61 122.012 63.28C122.332 62.87 122.172 62.39 121.962 62C121.702 61.51 121.382 61.05 121.012 60.62C119.492 61.07 118.002 61.6 116.542 62.2C116.182 62.35 115.782 62.55 115.682 62.85C115.632 62.99 115.672 63.13 115.712 63.27C115.882 63.89 116.062 64.53 116.472 65.05C116.542 65.14 116.642 65.24 116.782 65.25Z" fill="#F2F2F2"/>
<path d="M143.591 48.91C143.331 51.6 142.821 54.64 140.491 56.34C138.681 57.66 136.251 57.76 134.121 58.21C134.191 57.03 134.031 55.76 134.061 54.53C134.101 52.88 134.551 51.27 134.631 49.63C134.661 49 134.591 48.38 134.491 47.75C134.481 47.68 134.231 46.94 134.041 46.36C134.101 46.32 134.161 46.26 134.221 46.18C134.671 45.59 134.511 45.27 134.201 45.15C134.151 45.11 134.091 45.09 134.031 45.09C133.491 44.81 133.241 45.03 133.191 45.38C133.181 45.39 133.171 45.41 133.171 45.42C133.131 45.45 133.091 45.48 133.071 45.51C132.991 45.6 132.961 45.77 133.071 45.86C133.141 45.92 133.221 45.98 133.291 46.04C133.371 46.24 133.491 46.44 133.621 46.68C134.321 47.98 134.191 49.63 134.051 51.05C133.911 52.39 133.671 53.7 133.641 55.05C133.611 56.16 133.781 57.23 133.741 58.31C133.551 58.37 133.581 58.6 133.721 58.68C133.701 58.87 133.681 59.05 133.651 59.24C133.351 60.9 131.821 61.69 130.581 62.62C129.681 63.29 128.911 64.06 128.211 64.94C127.261 66.15 126.291 66.85 124.751 67.18C123.611 67.42 122.461 67.63 121.501 66.82C120.921 66.33 120.601 65.48 120.311 64.8C120.191 64.53 119.791 64.76 119.911 65.03C120.361 66.07 120.851 67.02 121.851 67.61C122.801 68.17 124.341 67.72 125.331 67.51C126.581 67.24 127.471 66.55 128.271 65.58C129.481 64.1 130.791 63 132.331 61.87C133.531 60.99 133.971 59.88 134.101 58.67C136.651 58.15 139.341 57.9 141.381 56.13C143.291 54.48 143.721 51.29 143.821 48.93C143.801 48.78 143.601 48.78 143.591 48.91Z" fill="#1E839E"/>
<path d="M144.911 41.17C145.491 41.29 146.201 40.84 146.211 40.15C146.211 39.83 146.082 39.54 145.932 39.27C144.962 37.48 143.461 36.15 141.841 35.21C141.051 34.75 140.202 34.36 139.322 34.25C138.192 34.11 137.062 34.41 135.932 34.57C134.802 34.73 133.592 34.71 132.622 34C132.372 34.57 132.452 35.33 132.832 35.8C132.872 35.86 132.932 35.92 132.922 35.99C132.912 36.05 132.881 36.09 132.841 36.12C132.231 36.75 131.362 37 130.572 36.76C130.692 37.34 130.982 37.87 131.382 38.24C131.542 38.39 131.722 38.53 131.772 38.76C131.812 38.92 131.771 39.1 131.721 39.26C131.571 39.77 131.331 40.25 131.031 40.67C130.761 41.05 130.401 41.45 130.471 41.94C130.501 42.14 130.602 42.32 130.692 42.49C130.992 43.02 131.302 43.55 131.602 44.08C131.652 44.17 131.712 44.27 131.802 44.32C131.902 44.37 132.012 44.34 132.112 44.31C133.062 44 133.742 43.05 134.522 42.34C135.742 41.22 137.272 40.64 138.802 40.42C140.072 40.23 141.332 40.29 142.602 40.33C142.942 40.34 143.322 40.27 143.642 40.42C144.112 40.61 144.401 41.07 144.911 41.17Z" fill="#0A0A0A"/>
<path d="M16.6048 64.443L12.7487 62.5386L10.6011 65.4396L15.4124 67.8304L16.6048 64.443Z" fill="#FFC9A6"/>
<path d="M6.59669 61.2335C6.28226 63.2031 7.59928 65.0837 9.53921 65.4337C11.4791 65.7837 13.3064 64.4667 13.6208 62.4912C13.9352 60.5216 12.6182 58.641 10.6783 58.291C8.73833 57.9409 6.91111 59.258 6.59669 61.2335Z" fill="#FFC9A6"/>
<path d="M3.06687 56.9799C2.89483 57.3596 3.06687 57.8164 3.44062 58.0003L11.93 62.0403C12.3038 62.2183 12.7547 62.0522 12.9267 61.6725C13.0987 61.2928 12.9267 60.8301 12.553 60.6521L4.06353 56.6121C3.68385 56.4341 3.23892 56.6002 3.06687 56.9799Z" fill="black"/>
<path d="M33.0082 53.1949L24.7205 68.3822L14.9971 63.0844L13.5081 67.7652L25.7587 76.0292C26.7376 76.569 27.9478 76.1894 28.4343 75.1808L37.3152 64.0099L33.0082 53.1949Z" fill="black"/>
<path d="M39.0594 47.126L39.445 46.8531C40.7264 45.9514 42.6723 46.6217 41.7883 45.3107L34.3193 34.1575L29.7097 37.4026L35.838 46.515C36.5677 47.5947 38.0093 47.8676 39.0594 47.126Z" fill="#FCC9A7"/>
<path d="M25.8358 39.651C27.3901 42.7003 31.0683 43.875 34.0404 42.2851C37.0186 40.6952 38.1695 36.9339 36.6152 33.8906C34.7405 30.2183 31.703 29.4946 28.4105 31.2565C25.4324 32.8464 24.2815 36.6077 25.8358 39.651Z" fill="#FCC9A7"/>
<path d="M33.3405 45.5895C34.7524 44.836 35.3041 43.0503 34.5626 41.6028L31.8692 36.3229L25.7943 39.568L27.9893 43.875C29.0038 45.8564 31.4005 46.6276 33.3405 45.5895Z" fill="#FCC9A7"/>
<path d="M26.6248 40.8019L26.3519 43.2046C26.3341 43.5843 26.7316 43.8216 27.0757 43.6377L28.5766 43.1749L26.6248 40.8019Z" fill="#FCC9A7"/>
<path d="M34.5803 38.0196L37.5941 39.0459C37.5941 39.0459 39.8959 29.2157 32.5158 28.0055C32.5158 28.0055 26.346 27.6377 24.0501 32.9176C23.3976 34.4245 23.4569 36.7619 25.1477 37.1119C25.1477 37.1119 25.1595 37.2424 25.1477 37.1119C25.0349 35.789 25.5155 34.638 25.5155 34.638C25.5155 34.638 26.9511 38.1442 29.864 37.806L30.7064 39.1052C31.0268 39.5976 31.9997 39.4078 32.5099 39.129L33.0854 38.8205L32.3141 37.3017L34.5803 38.0196Z" fill="#0B1226"/>
<path d="M31.7623 36.1983C31.1453 36.8983 31.2047 37.984 31.8869 38.6128C32.5751 39.2417 33.6311 39.1883 34.248 38.4823C34.865 37.7823 34.8057 36.6966 34.1235 36.0678C33.4353 35.439 32.3793 35.4923 31.7623 36.1983Z" fill="#FCC9A7"/>
<path d="M49.4354 133.776L50.4914 139.21L46.6768 140.017L45.3776 134.47L49.4354 133.776Z" fill="#FCC9A7"/>
<path d="M51.1855 138.884C51.0787 138.599 50.7346 138.499 50.5033 138.688C50.0465 139.056 49.2278 139.507 48.0116 139.412C46.7539 139.311 46.2793 138.653 46.1013 138.178C46.0064 137.929 45.7395 137.804 45.4962 137.911L37.8552 141.423C37.3924 141.637 37.0305 142.028 36.8466 142.515C36.6746 142.972 37.0187 143.458 37.4933 143.44L50.6931 142.989C51.2152 142.972 51.6126 142.515 51.5652 141.981L51.3457 139.382C51.3398 139.341 51.3338 139.299 51.316 139.258L51.1855 138.884Z" fill="#0C0C0C"/>
<path d="M36.2177 133.539L35.8321 139.062L31.9523 138.813L32.1184 133.112L36.2177 133.539Z" fill="#FCC9A7"/>
<path d="M30.8132 75.4834L30.926 134.903H37.6949L39.89 82.81L30.8132 75.4834Z" fill="#C77A14"/>
<path d="M33.4057 48.7634C33.4057 48.7634 34.4498 46.3963 35.5236 45.8564C36.5974 45.3166 41.4799 44.6106 41.4799 44.6106C41.4799 44.6106 47.0446 48.3837 46.9615 55.1408L46.475 75.4834H30.8073C30.8132 75.4834 29.6445 57.1163 33.4057 48.7634Z" fill="black"/>
<path d="M30.8132 75.4834L33.5837 84.0618L36.989 107.59L44.1021 135.503L50.7168 134.725L45.253 107.288L45.4072 86.7255C45.4072 86.7255 45.7394 84.839 44.7902 75.4893H30.8132V75.4834Z" fill="#C77A14"/>
<path d="M40.1688 96.7396C40.3112 98.899 42.1384 100.536 44.2504 100.394C46.3624 100.252 47.9642 98.3829 47.8218 96.2175C47.6794 94.0522 45.8522 92.4207 43.7402 92.5631C41.6282 92.7055 40.0265 94.5742 40.1688 96.7396Z" fill="#FCC9A7"/>
<path d="M42.2609 94.4308H46.2061V87.0211H42.2609V94.4308Z" fill="#FCC9A7"/>
<path d="M46.8192 54.4705V88.7782H41.3969L39.4807 52.7085C39.3917 50.994 40.1095 49.3092 41.4681 48.3066C43.0164 47.1675 45.0928 47.0667 46.5581 52.5187C46.7361 53.1535 46.8192 53.812 46.8192 54.4705Z" fill="black"/>
<path d="M46.8192 88.7781V86.4763H41.2782L41.4028 88.7781H46.8192Z" fill="#FFEEE3"/>
<path d="M36.7992 138.006C36.7042 137.715 36.3661 137.597 36.1228 137.775C35.6482 138.119 34.8058 138.528 33.6015 138.374C32.3498 138.214 31.9048 137.532 31.7506 137.045C31.6675 136.79 31.4065 136.654 31.1633 136.748L23.3679 139.875C22.8933 140.065 22.5137 140.438 22.312 140.919C22.1221 141.37 22.4366 141.868 22.9171 141.88L36.1228 142.082C36.6449 142.088 37.0602 141.649 37.0424 141.121L36.9475 138.51C36.9475 138.469 36.9356 138.427 36.9237 138.386L36.7992 138.006Z" fill="#0C0C0C"/>
<path d="M39.89 57.4604L40.6968 75.4834L39.89 57.4604Z" stroke="#E8CCB1" stroke-width="0.7847" stroke-miterlimit="10" stroke-linecap="round" stroke-linejoin="round"/>
<path d="M27.4614 35.2965C27.4614 35.2965 23.0951 41.7452 21.6713 36.2161C20.2475 30.687 29.4191 32.3303 29.4191 32.3303L27.4614 35.2965Z" fill="#0B1226"/>
<path d="M41.48 44.6106C41.48 44.6106 34.8475 51.2728 34.0406 47.5413C34.0406 47.5413 34.7585 45.7437 37.3095 44.403L41.48 44.6106Z" fill="#FCC9A7"/>
<defs>
<linearGradient id="paint0_linear" x1="149.304" y1="140" x2="109.58" y2="141.467" gradientUnits="userSpaceOnUse">
<stop stop-color="white"/>
<stop offset="1"/>
</linearGradient>
<linearGradient id="paint1_linear" x1="149.304" y1="140" x2="109.58" y2="141.467" gradientUnits="userSpaceOnUse">
<stop/>
<stop offset="1"/>
</linearGradient>
</defs>
</svg>
