<svg width="589" height="271" viewBox="0 0 589 271" fill="none" xmlns="http://www.w3.org/2000/svg">
<g clip-path="url(#clip0)">
<path d="M336.622 32.7408C336.84 32.6921 336.677 33.0086 336.677 33.0086C336.142 33.2517 326.725 36.3521 326.751 40.2711C326.76 41.66 326.777 42.5309 328.071 43.5793C330.412 45.4767 334.554 45.0089 339.265 45.3181C344.602 45.6684 348.454 44.5221 353.706 44.977C357.857 45.3365 361.325 45.1135 363.422 46.8125C365.033 48.1185 365.903 49.1776 364.887 50.9843C363.53 53.3972 360.379 54.7776 356.023 56.2978C352.76 57.4367 350.061 57.9865 346.531 58.5707C328.361 61.5778 322.444 51.1179 304.427 54.9522C297.203 56.4895 291.724 57.0936 286.93 60.6977C282.892 63.7335 282.24 65.7268 283.121 68.717C284.071 71.9443 288.522 72.5477 292.786 74.6042C298.173 77.2022 303.869 77.1955 308.431 80.1937C311.059 81.9213 313.131 82.8342 313.694 85.2101C314.082 86.852 313.646 87.9131 312.809 89.6942C310.975 93.5981 301.943 99.9993 301.943 99.9993L300.845 99.2818C300.845 99.2818 309.457 93.6807 311.329 89.8376C312.141 88.1698 312.622 87.1691 312.271 85.6299C311.735 83.2832 309.399 82.4843 306.747 80.808C302.115 77.8816 296.659 77.779 291.392 75.1622C287.049 73.0043 282.577 72.3147 281.642 68.97C280.787 65.9159 281.84 63.5056 285.932 60.4091C290.714 56.7913 297.025 55.7751 304.864 54.1486C322.907 50.405 328.831 61.0526 346.969 57.767C350.384 57.1483 352.502 56.9516 355.619 55.8013C359.392 54.4086 362.27 53.249 363.408 51.1277C364.213 49.6262 363.813 48.7266 362.672 47.5669C360.784 45.6489 357.203 45.6781 352.84 45.2719C348.072 44.828 344.549 45.9223 339.616 45.6875C334.534 45.4456 330.04 46.0135 327.522 44.0027C326.1 42.8677 326.124 41.9028 326.17 40.3837C326.289 36.4278 334.99 33.336 336.622 32.7408Z" fill="#DDDDDD"/>
<path d="M336.622 32.7408C336.41 32.8031 336.677 33.0086 336.677 33.0086C336.677 33.0086 353.005 26.9071 360.622 28.7884C363.322 29.4552 365.009 29.8808 366.432 31.2197C369.008 33.6429 366.12 36.1098 364.474 39.3155C362.608 42.9477 358.538 44.9031 356.916 48.5299C355.635 51.3962 353.545 53.5418 355.852 55.7117C357.625 57.3796 359.272 58.4485 363.274 58.6486C368.618 58.9157 372.81 57.5267 377.848 55.4216C381.623 53.8445 383.982 52.3536 386.804 50.3398C401.331 39.9729 383.793 31.1535 399.858 21.2794C406.298 17.3205 410.089 14.0507 419.394 12.653C427.231 11.4758 431.423 12.0008 436.823 13.9956C442.652 16.1485 441.702 19.3256 443.67 23.0728C446.157 27.8067 443.425 31.5019 447.084 35.8909C449.192 38.4197 449.98 40.1992 454.337 41.695C457.348 42.7287 459.622 42.9501 463.488 43.2543C471.964 43.9211 488.736 41.1028 488.736 41.1028L487.863 40.0488C487.863 40.0488 472.849 42.9749 464.474 42.3617C460.839 42.0956 458.662 41.9318 455.833 40.971C451.521 39.5063 451.08 37.6097 449.083 35.0895C445.597 30.6899 448.002 27.0984 445.422 22.4331C443.294 18.5861 444.086 15.3548 438.022 13.1557C432.484 11.1476 427.29 10.6841 419.308 11.8678C409.983 13.2507 404.993 16.865 398.084 21.1812C382.185 31.1148 400.084 40.0283 385.031 50.2416C382.196 52.1648 380.802 53.4465 377.075 54.9227C372.563 56.7098 368.932 58.0265 364.259 57.756C360.952 57.5645 359.391 56.8767 357.679 55.5839C354.846 53.4455 356.612 51.1341 357.904 48.1076C359.315 44.8009 363.128 43.034 365.025 39.7191C366.98 36.3042 370.23 33.6568 367.518 31.0648C365.987 29.6016 364.097 29.1583 361.118 28.4651C353.361 26.66 338 32.334 336.622 32.7408Z" fill="#DDDDDD"/>
<path d="M487.002 49.3618C487.002 49.3618 490.877 51.0056 491.612 56.8131C491.809 58.5207 490.937 59.782 489.688 60.9815C488.41 62.2587 486.518 62.2631 485.375 63.57C486.165 62.3327 485.934 60.86 487.286 59.8727C485.268 60.5026 484.227 62.0216 483.957 64.0055C483.717 65.9115 482.844 67.1729 480.676 67.3798C481.781 66.5173 481.408 65.3291 481.358 64.1491C481.24 65.5344 480.141 66.1875 478.89 66.4701C477.366 66.8505 476.706 67.2529 475.541 68.3759C476.136 66.3478 475.112 65.2479 477.651 64.2908C479.044 63.776 480.583 62.8197 479.466 61.1412C479.089 64.0915 476.546 63.1626 474.494 64.0797C473.044 64.7501 473.338 65.8577 472.526 66.9111C471.713 67.9644 470.303 68.1382 469.033 68.1321C471.157 67.5574 470.625 65.2388 471.128 63.6014C471.693 61.7036 474.273 61.2713 475.346 59.5698C474.387 58.0524 473.445 59.8883 473.05 60.5069C472.403 61.4596 471.567 62.3814 470.175 61.8746C473.446 60.8575 471.225 57.0292 473.59 55.5176C474.498 54.9381 476.799 55.8347 477.259 54.7986C477.978 53.219 475.144 54.0377 474.539 54.4415C474.697 53.5811 475.396 52.7344 476.271 52.3375C477.394 51.8159 478.186 52.5171 479.164 52.3324C480.467 52.1035 480.592 50.5088 479.133 50.4718C478.593 50.4581 477.46 51.3462 476.807 51.5391C477.607 49.9354 479.566 48.4397 481.36 48.0661C483.59 47.5988 485.131 48.5809 487.002 49.3618Z" fill="url(#paint0_linear)"/>
<path d="M488.082 51.3914C488.471 51.8156 488.444 51.8408 488.801 52.392C489.567 53.5458 489.719 55.2154 488.573 56.1714C487.919 56.6994 487.149 56.5515 486.449 56.9263C485.709 57.3134 485.675 58.1025 485.281 58.7097C485.247 58.2764 485.248 57.9326 485.148 57.5114C485.107 57.2563 485.04 56.9755 485.142 56.7346C484.86 57.1901 484.81 57.7244 484.501 58.1796C484.109 58.7359 483.523 58.9081 482.883 59.1053C482.231 59.2896 481.597 59.3595 480.887 59.3522C480.598 59.3492 480.219 59.2816 479.952 59.3808C479.603 59.53 479.471 59.847 479.199 60.0734C479.355 59.1964 479.413 58.7513 480.371 58.5065C481.355 58.2619 481.403 57.4348 482.047 56.8429C481.493 57.181 480.789 57.3393 480.412 56.6351C481.58 57.0036 482.063 56.1682 482.224 55.1894C482.396 54.2489 482.366 53.421 483.157 52.767C482.671 52.7492 482.426 53.2433 482.125 53.5204C481.77 53.8223 481.37 53.9455 480.906 54.0299C480.961 53.9795 481.042 53.9294 481.07 53.8788C481.255 53.5624 481.593 53.3494 481.777 53.0329C481.948 52.7291 482.053 52.4373 482.185 52.1203C482.449 51.4864 483.13 50.9331 483.724 50.5827C484.71 49.9943 486.516 50.1911 487.689 51.0436L487.804 51.1339C487.905 51.2113 487.994 51.3014 488.082 51.3914Z" fill="#FFC929"/>
<path d="M488.418 51.7373C488.839 52.2225 488.9 52.616 488.886 53.2505C488.863 53.9589 488.189 54.4591 487.712 54.9245C487.828 54.7119 487.798 54.5016 487.824 54.266C487.567 54.5421 487.326 54.4336 487.037 54.5939C486.733 54.7673 486.572 55.1273 486.289 55.3081C486.421 55.0013 486.066 54.6801 486.295 54.4032C485.986 54.5157 486.096 54.8904 485.883 55.0732C485.698 55.2298 485.292 55.2989 485.088 55.4077C485.111 55.3341 485.65 54.6003 485.241 54.8044C485.163 54.8494 485.094 55.1242 484.981 55.2154C484.882 55.2801 484.734 55.323 484.615 55.3532C484.342 55.4195 484.065 55.3573 483.818 55.4783C483.536 55.6186 483.398 55.8779 483.253 56.1438C483.41 55.6554 483.313 55.3351 483.752 55.0104C483.965 54.841 484.052 54.695 484.203 54.4901C484.332 54.3183 484.501 54.2423 484.672 54.0852C484.132 53.9477 484.028 54.5187 483.579 54.6406C483.835 54.4455 483.757 54.1595 483.84 53.8986C483.929 53.6446 484.151 53.4012 484.411 53.2941C484.601 53.2119 485.094 53.2872 485.066 52.9825C485.039 52.6237 484.512 52.8175 484.357 52.9345C484.453 52.674 484.675 52.4171 484.99 52.3521C485.263 52.2994 485.538 52.4426 485.671 52.1358C485.441 51.8184 485.113 52.1329 484.8 52.1169C485.247 51.7721 485.452 51.0285 486.153 51.164C486.34 51.2033 486.79 51.6218 486.818 51.3052C486.838 51.0491 486.368 50.8597 486.166 50.8875C486.847 50.6442 487.82 51.0848 488.33 51.6469L488.418 51.7373Z" fill="#F9F079"/>
<path d="M484.552 44.6033C483.987 45.5217 483.462 46.41 482.97 47.2617C482.478 48.1134 484.309 50.9356 486.2 52.8618C488.076 54.7727 491.583 57.4125 492.487 56.9807C493.391 56.5489 494.333 56.087 495.309 55.5896L484.552 44.6033Z" fill="url(#paint1_linear)"/>
<path d="M512.254 46.2309C523.774 39.0765 535.321 29.5651 540.708 16.0868L527.642 2.74249C513.471 7.24928 503.061 17.9234 495.085 28.6973L487.428 40.0077C486.724 41.1202 486.051 42.195 485.397 43.2481L496.751 54.8437C497.869 54.2645 499.015 53.6701 500.197 53.0483L512.254 46.2309ZM526.489 16.4831C527.973 18.0595 527.918 20.4758 526.342 21.9246C524.768 23.3718 522.271 23.3021 520.725 21.7824C519.24 20.2059 519.299 17.7869 520.873 16.3397C522.449 14.8909 524.941 14.9633 526.489 16.4831Z" fill="url(#paint2_linear)"/>
<path d="M501.353 56.1012L500.196 53.0487L512.254 46.2314C511.822 48.4523 511.133 57.277 511.133 57.277L497.422 68.3859L494.902 65.8124L501.353 56.1012Z" fill="url(#paint3_linear)"/>
<path d="M483.644 29.2037C483.644 29.2037 492.773 28.9974 495.085 28.6978L487.427 40.0081L484.342 38.7291L473.996 44.4618L471.477 41.8889L483.644 29.2037Z" fill="url(#paint4_linear)"/>
<path d="M541.297 14.4673C542.777 10.173 544.516 0.16083 544.371 0.0127273C544.225 -0.136537 533.846 1.05223 529.344 2.25958L541.297 14.4673Z" fill="url(#paint5_linear)"/>
<path d="M484.552 44.6033L495.309 55.5896L496.751 54.8437L485.397 43.2481L484.552 44.6033Z" fill="url(#paint6_linear)"/>
<path d="M527.641 2.74286L540.708 16.0872L541.298 14.4676L529.344 2.25989L527.641 2.74286Z" fill="url(#paint7_linear)"/>
<path d="M526.342 21.9246C527.918 20.4757 527.973 18.0595 526.489 16.483C524.942 14.9632 522.449 14.8908 520.873 16.3396C519.299 17.7868 519.24 20.2058 520.725 21.7823C522.272 23.302 524.768 23.3718 526.342 21.9246Z" fill="url(#paint8_linear)"/>
<path d="M211.35 249.653V227.753H163.95L159.3 215.903L193.35 138.353H219.75L190.05 205.703H211.35V186.803L216.3 173.153H237.3V205.703H247.35V223.703L237.3 227.753V249.653H211.35Z" fill="#3E404E"/>
<g filter="url(#filter0_d)">
<path d="M349.05 174.155C362.021 202.893 348.496 236.379 318.84 248.949C289.184 261.52 254.627 248.413 241.656 219.675C228.684 190.938 242.209 157.451 271.865 144.881C301.521 132.311 336.078 145.417 349.05 174.155Z" fill="url(#paint9_linear)"/>
<path d="M272.023 180.31C274.019 184.731 271.939 189.883 267.377 191.818C262.814 193.752 257.498 191.736 255.502 187.315C253.505 182.894 255.586 177.742 260.148 175.808C264.711 173.874 270.027 175.889 272.023 180.31Z" fill="url(#paint10_linear)"/>
<path d="M327.091 157.176C328.237 158.464 328.021 160.149 326.608 160.939C325.194 161.728 323.12 161.324 321.974 160.036C320.828 158.748 321.044 157.063 322.457 156.274C323.87 155.484 325.945 155.888 327.091 157.176Z" fill="url(#paint11_linear)"/>
<path d="M347.799 197.995C349.582 198.597 350.332 201.024 349.473 203.415C348.613 205.807 346.471 207.258 344.687 206.656C342.903 206.054 342.153 203.627 343.012 201.236C343.872 198.844 346.015 197.393 347.799 197.995Z" fill="url(#paint12_linear)"/>
<path d="M293.641 142.174C293.756 143.149 291.744 144.173 289.148 144.461C286.551 144.749 284.353 144.192 284.238 143.217C284.123 142.242 286.135 141.218 288.731 140.93C291.328 140.642 293.526 141.199 293.641 142.174Z" fill="url(#paint13_linear)"/>
<path d="M315.639 229.545C316.899 235.9 311.613 242.224 303.833 243.672C296.053 245.12 288.725 241.143 287.466 234.789C286.206 228.434 291.492 222.11 299.272 220.662C307.052 219.214 314.38 223.191 315.639 229.545Z" fill="url(#paint14_linear)"/>
<path d="M275.577 142.607C275.968 143.382 273.637 145.264 270.371 146.811C267.105 148.357 264.14 148.982 263.75 148.207C263.359 147.431 265.689 145.549 268.956 144.003C272.222 142.456 275.186 141.831 275.577 142.607Z" fill="#FF7C09"/>
<path d="M276.091 143.626C276.765 144.964 274.665 147.302 271.398 148.848C268.132 150.395 264.938 150.564 264.263 149.225C263.588 147.887 265.689 145.549 268.955 144.003C272.222 142.456 275.416 142.288 276.091 143.626Z" fill="#FF7C09"/>
<path d="M273.708 142.767C273.822 142.993 272.059 144.054 269.772 145.137C267.484 146.22 265.538 146.915 265.424 146.689C265.31 146.463 267.072 145.403 269.36 144.32C271.647 143.237 273.594 142.542 273.708 142.767Z" fill="#400003"/>
<path d="M234.714 205.288C236.101 204.879 238.622 208.993 240.345 214.477C242.068 219.96 242.341 224.738 240.954 225.147C239.568 225.556 237.047 221.442 235.324 215.958C233.6 210.474 233.327 205.697 234.714 205.288Z" fill="url(#paint15_linear)"/>
<path d="M236.536 204.75C238.928 204.044 242.265 207.917 243.988 213.401C245.711 218.885 245.168 223.903 242.776 224.609C240.383 225.315 237.047 221.442 235.324 215.958C233.6 210.474 234.143 205.456 236.536 204.75Z" fill="url(#paint16_linear)"/>
<path d="M234.499 208.24C234.902 208.121 236.208 211.138 237.415 214.978C238.622 218.819 239.273 222.029 238.87 222.148C238.466 222.267 237.161 219.25 235.954 215.409C234.747 211.569 234.096 208.359 234.499 208.24Z" fill="#400104"/>
<path d="M284.148 251.733C284.203 250.99 289.039 250.479 294.951 250.593C300.862 250.706 305.61 251.402 305.556 252.145C305.502 252.889 300.666 253.4 294.754 253.286C288.842 253.172 284.094 252.477 284.148 251.733Z" fill="url(#paint17_linear)"/>
<path d="M284.22 250.756C284.314 249.473 289.182 248.524 295.093 248.638C301.005 248.752 305.721 249.885 305.628 251.168C305.534 252.452 300.666 253.4 294.754 253.286C288.843 253.172 284.126 252.04 284.22 250.756Z" fill="url(#paint18_linear)"/>
<path d="M286.956 252.349C286.972 252.133 290.341 252.022 294.482 252.102C298.622 252.182 301.966 252.422 301.95 252.638C301.934 252.854 298.565 252.965 294.424 252.886C290.284 252.806 286.941 252.566 286.956 252.349Z" fill="#150303"/>
<path d="M345.046 228.782C343.893 228.273 344.695 224.166 346.837 219.609C348.979 215.052 351.649 211.769 352.802 212.278C353.954 212.786 353.152 216.893 351.01 221.45C348.868 226.008 346.198 229.29 345.046 228.782Z" fill="url(#paint19_linear)"/>
<path d="M343.531 228.114C341.543 227.237 341.667 222.831 343.809 218.273C345.951 213.716 349.299 210.733 351.287 211.61C353.276 212.488 353.151 216.894 351.009 221.451C348.868 226.008 345.52 228.992 343.531 228.114Z" fill="url(#paint20_linear)"/>
<path d="M346.947 226.969C346.611 226.821 347.555 224.114 349.056 220.922C350.556 217.73 352.043 215.262 352.379 215.41C352.714 215.558 351.77 218.266 350.27 221.458C348.77 224.649 347.282 227.117 346.947 226.969Z" fill="#130406"/>
<path d="M345.358 165.531C344.706 165.962 342.707 164.221 340.893 161.643C339.08 159.065 338.138 156.626 338.79 156.195C339.442 155.765 341.44 157.506 343.254 160.084C345.068 162.662 346.009 165.101 345.358 165.531Z" fill="url(#paint21_linear)"/>
<path d="M344.501 166.097C343.377 166.84 340.995 165.352 339.181 162.774C337.367 160.196 336.809 157.504 337.933 156.761C339.058 156.018 341.44 157.506 343.254 160.084C345.068 162.662 345.626 165.354 344.501 166.097Z" fill="url(#paint22_linear)"/>
<path d="M344.975 163.964C344.785 164.089 343.602 162.727 342.332 160.921C341.061 159.116 340.185 157.551 340.375 157.425C340.565 157.3 341.748 158.662 343.018 160.468C344.289 162.273 345.165 163.838 344.975 163.964Z" fill="#3D0002"/>
<path d="M308.846 189.274C308.846 192.29 306.323 194.735 303.211 194.735C300.098 194.735 297.575 192.29 297.575 189.274C297.575 186.258 300.098 183.813 303.211 183.813C306.323 183.813 308.846 186.258 308.846 189.274Z" fill="#91080D"/>
<path d="M260.155 229.176C258.741 230.357 255.947 229.462 253.916 227.177C251.884 224.892 251.384 222.083 252.799 220.901C254.214 219.72 257.008 220.615 259.039 222.9C261.07 225.185 261.57 227.995 260.155 229.176Z" fill="#79080D"/>
<path d="M304.338 152.139C304.338 153.949 301.815 155.416 298.703 155.416C295.59 155.416 293.067 153.949 293.067 152.139C293.067 150.33 295.59 148.863 298.703 148.863C301.815 148.863 304.338 150.33 304.338 152.139Z" fill="#BD0C14"/>
<path d="M337.596 221.232C338.823 222.596 337.917 225.308 335.572 227.291C333.227 229.274 330.33 229.776 329.103 228.413C327.875 227.049 328.781 224.336 331.126 222.353C333.471 220.37 336.368 219.868 337.596 221.232Z" fill="#580508"/>
</g>
<path d="M247.716 149.696L250.343 150.686L258.808 147.716C258.808 147.716 260.551 149.128 261.581 150.121C262.353 150.865 262.955 151.176 263.479 152.101C263.688 152.469 264.05 152.69 263.917 153.091C263.805 153.427 263.526 153.527 263.187 153.656C262.763 153.819 262.471 153.714 262.019 153.656C260.957 153.522 259.684 152.525 259.246 152.808C258.808 153.091 258.762 153.764 258.516 154.646C258.27 155.529 260.021 157.959 259.246 159.879C259.032 160.409 259.043 160.901 258.516 161.152C258.107 161.348 257.786 161.276 257.349 161.152C256.535 160.922 256.393 160.257 255.889 159.597C254.949 158.365 254.138 156.061 254.138 156.061C254.138 156.061 254.702 157.849 254.868 159.031C254.983 159.854 255.224 160.347 255.014 161.152C254.907 161.56 254.939 161.913 254.576 162.142C254.332 162.296 254.137 162.284 253.846 162.284C253.555 162.284 253.38 162.26 253.116 162.142C252.639 161.93 252.528 161.579 252.24 161.152C251.835 160.551 251.787 160.121 251.511 159.455C250.898 157.98 250.051 155.637 250.051 155.637C250.051 155.637 250.336 158.246 250.051 159.879C249.964 160.382 250.203 160.879 249.759 161.152C249.561 161.275 249.41 161.294 249.175 161.294C248.94 161.294 248.804 161.25 248.592 161.152C248.034 160.897 247.999 160.41 247.716 159.879C247.278 159.057 247.161 158.527 246.986 157.617C246.714 156.205 246.624 155.378 246.694 153.939C246.738 153.05 246.769 152.542 246.986 151.676C247.186 150.878 247.716 149.696 247.716 149.696Z" fill="#C0C0C0"/>
<path d="M250.051 110.095C250.051 110.095 259.329 100.407 266.982 96.8008C275.155 92.949 289.75 92.1335 289.75 92.1335C289.75 92.1335 295.675 100.45 298.507 106.277C302.765 115.035 305.805 130.037 305.805 130.037L273.841 148.282C273.841 148.282 265.159 138.652 260.706 131.735C255.592 123.79 250.051 110.095 250.051 110.095Z" fill="#CACACA"/>
<path d="M261.435 95.1035C253.782 98.7102 244.505 108.398 244.505 108.398C244.505 108.398 250.045 122.093 255.159 130.037C259.612 136.955 268.295 146.585 268.295 146.585L273.841 148.282C273.841 148.282 265.158 138.652 260.705 131.734C255.591 123.79 250.051 110.095 250.051 110.095C250.051 110.095 259.328 100.407 266.981 96.8007C275.155 92.9489 289.75 92.1334 289.75 92.1334C289.75 92.1334 295.675 100.45 298.507 106.277C302.44 114.367 305.334 127.785 305.752 129.785L305.805 129.754C305.805 129.754 303.911 116.071 300.259 108.115C297.154 101.354 289.75 92.1334 289.75 92.1334L284.204 90.4362C284.204 90.4362 269.608 91.2517 261.435 95.1035Z" fill="#ACAAAA"/>
<path d="M244.505 108.398C244.505 108.398 250.045 122.093 255.159 130.037C259.612 136.955 268.295 146.585 268.295 146.585L273.841 148.282C273.841 148.282 265.159 138.652 260.706 131.735C255.592 123.79 250.051 110.095 250.051 110.095L244.505 108.398Z" fill="#BBB8B8"/>
<path d="M254.138 156.061C254.138 156.061 254.949 158.365 255.889 159.597C256.393 160.257 256.535 160.922 257.349 161.153C257.786 161.277 258.107 161.348 258.516 161.153C258.925 160.957 258.616 160.542 258.371 160.304C258.125 160.066 257.801 160.321 257.495 160.163C256.977 159.895 257.074 159.373 256.765 158.89C256.399 158.317 256.093 158.059 255.744 157.475C255.488 157.048 255.566 156.642 255.16 156.344C254.829 156.101 254.138 156.061 254.138 156.061Z" fill="#D6D6D6"/>
<path d="M250.051 155.637C250.051 155.637 250.898 157.98 251.51 159.455C251.787 160.121 251.835 160.551 252.24 161.152C252.528 161.579 252.638 161.93 253.116 162.143C253.38 162.26 253.555 162.284 253.846 162.284C254.136 162.284 254.008 161.945 253.992 161.718C253.961 161.288 254.109 161.217 253.846 160.87C253.453 160.35 253.239 160.447 252.925 159.88C252.539 159.183 252.157 158.329 251.802 157.617C251.525 157.061 251.794 156.659 251.365 156.202C251.119 155.941 250.609 155.695 250.051 155.637Z" fill="#D6D6D6"/>
<path d="M246.986 151.677C246.769 152.542 246.738 153.05 246.694 153.94C246.624 155.378 246.714 156.205 246.986 157.617C247.161 158.527 247.278 159.057 247.716 159.88C247.999 160.411 248.034 160.897 248.592 161.153C248.804 161.25 248.94 161.294 249.175 161.294C249.175 161.294 248.532 159.422 248.3 158.183C248.116 157.198 247.943 156.635 248.008 155.637C248.071 154.674 248.213 154.125 248.592 153.232C249.061 152.127 250.343 150.687 250.343 150.687L247.716 149.697C247.716 149.697 247.186 150.879 246.986 151.677Z" fill="#D6D6D6"/>
<path d="M259.035 105.331C258.982 105.018 259.251 104.754 259.567 104.778C260.579 104.856 261.415 104.83 262.603 104.721C265.191 104.484 266.603 103.94 269.025 103.024C270.19 102.583 270.83 102.3 271.944 101.751C274.044 100.715 275.161 100.001 277.053 98.6394C278.821 97.3656 279.974 96.7363 281.32 95.1361C281.472 94.9547 281.731 94.8942 281.932 95.0203C283.624 96.0836 283.675 97.8564 284.496 99.2052C284.496 99.2052 281.047 100.445 279.096 102.175C276.983 104.049 275.523 104.746 272.82 105.852C270.275 106.894 268.409 107.355 265.668 107.691C263.283 107.984 260.706 109.388 260.706 109.388C259.836 107.769 259.277 106.785 259.035 105.331Z" fill="url(#paint23_linear)"/>
<path d="M305.367 168.649C305.484 167.996 305.367 166.951 305.367 166.951L315.584 169.497L314.854 171.902C314.854 171.902 318.678 175.891 319.233 179.115C319.525 180.812 318.692 184.63 316.168 184.63C311.643 184.63 309.852 182.647 307.265 179.68C304.955 177.033 302.788 174.813 303.762 171.477C304.116 170.264 305.145 169.891 305.367 168.649Z" fill="#C0C0C0"/>
<path d="M314.854 171.901L315.584 169.497H311.935C311.935 169.497 311.236 170.768 311.351 171.618C311.5 172.714 312.173 173.243 313.103 173.881C314.074 174.548 315.044 174.072 316.022 174.73C316.921 175.335 317.14 175.985 317.773 176.851C318.395 177.702 319.233 179.114 319.233 179.114C318.678 175.891 314.854 171.901 314.854 171.901Z" fill="#9C9C9C"/>
<path d="M305.367 168.649C305.145 169.891 304.116 170.264 303.762 171.477C302.788 174.813 304.955 177.033 307.265 179.68C309.852 182.647 311.643 184.63 316.168 184.63C316.168 184.63 313.024 183.892 311.351 182.792C309.515 181.583 308.733 180.515 307.557 178.69C306.786 177.496 306.249 176.816 305.951 175.437C305.694 174.248 305.549 173.477 305.951 172.326C306.255 171.455 306.886 171.189 307.265 170.346C307.618 169.56 307.849 168.224 307.849 168.224L305.367 166.951C305.367 166.951 305.484 167.996 305.367 168.649Z" fill="#D6D6D6"/>
<path d="M259.159 105.994C260.034 106.277 261.944 106.406 263.363 106.277C265.951 106.04 267.479 105.637 269.901 104.721C271.065 104.281 271.706 103.998 272.82 103.448C274.92 102.412 276.329 101.557 278.22 100.195C280.101 98.8408 282.277 97.3665 283.007 95.9521C283.299 96.235 283.613 97.0664 283.942 98.2151C283.942 98.2151 281.807 101.718 279.855 103.448C277.742 105.322 276.282 106.019 273.579 107.125C271.035 108.167 269.168 108.628 266.428 108.964C264.042 109.257 260.298 108.398 260.298 108.398C260.005 108.398 259.304 106.842 259.159 105.994Z" fill="url(#paint24_linear)"/>
<path d="M317.043 93.265C317.043 93.265 318.046 93.1825 318.649 92.9822C319.324 92.7576 319.679 92.5433 320.254 92.1336C320.904 91.6711 321.139 91.2669 321.714 90.7192C323.439 89.0752 326.238 86.6177 326.238 86.6177C326.238 86.6177 326.781 86.3831 327.114 86.4763C327.388 86.5528 327.518 86.6862 327.698 86.9006C327.859 87.0923 327.939 87.2242 327.99 87.4663C328.058 87.7956 327.926 87.9885 327.844 88.3149C327.473 89.7885 325.654 91.5043 325.946 91.7093L326.238 91.8507C326.53 91.8507 327.928 90.5023 329.157 89.8706C329.766 89.558 330.096 89.3293 330.763 89.1635C331.373 89.0119 331.838 88.6926 332.368 89.0221C332.714 89.2371 332.844 89.4864 332.952 89.8706C333.042 90.1904 332.991 90.39 332.952 90.7192C332.734 92.5431 329.143 93.4064 329.449 93.9722C329.545 94.1485 329.557 94.3074 329.741 94.3965C330.033 94.5379 331.177 94.4139 332.076 94.255C333.265 94.045 333.792 93.362 334.995 93.265C335.393 93.233 335.639 93.1406 336.017 93.265C336.439 93.4038 336.802 93.5499 336.893 93.9722C336.966 94.3141 336.77 94.512 336.601 94.8208C336.299 95.373 335.942 95.5686 335.433 95.9522C334.628 96.5588 334.043 96.7118 333.098 97.0837C331.727 97.6234 330.746 97.3822 329.449 98.0737C328.84 98.3988 327.99 98.3895 327.99 99.0637C327.99 100.054 330.904 100.481 331.201 102.175C331.287 102.665 331.5 103.045 331.201 103.448C330.916 103.831 330.514 103.795 330.033 103.872C328.842 104.064 328.274 103.208 327.114 102.882C325.879 102.536 325.182 102.309 323.903 102.175C322.713 102.051 320.838 102.175 320.838 102.175L320.4 95.3865L317.043 93.265Z" fill="#C0C0C0"/>
<path d="M334.995 93.265C333.791 93.362 333.264 94.045 332.076 94.255C331.784 94.3965 331.783 94.3971 331.638 94.5379L331.638 94.5379C331.493 94.6787 331.306 94.7669 331.346 94.9622C331.387 95.1575 331.591 95.1781 331.784 95.2451C332.227 95.3983 332.513 95.125 332.952 94.9622C333.309 94.8297 333.463 94.6499 333.827 94.5379C334.158 94.4363 334.36 94.4459 334.703 94.3965C335.158 94.331 335.421 94.3458 335.871 94.255C336.277 94.1731 336.983 94.3945 336.893 93.9721C336.802 93.5498 336.438 93.4038 336.017 93.265C335.639 93.1406 335.393 93.2329 334.995 93.265Z" fill="#D6D6D6"/>
<path d="M329.158 89.8707C327.99 90.5778 327.26 91.1436 327.26 91.1436C327.26 91.1436 326.937 91.4046 327.114 91.7093C327.344 92.1065 327.833 92.1271 328.282 91.9922C328.631 91.8419 328.811 91.7244 329.158 91.5679C329.551 91.3902 329.806 91.3583 330.179 91.1436C330.7 90.8439 330.834 90.4665 331.347 90.1535C331.671 89.956 332.011 90.038 332.223 89.7292C332.383 89.4945 332.899 89.3515 332.369 89.0221C331.839 88.6927 331.373 89.012 330.763 89.1635C330.096 89.3293 329.742 89.5171 329.158 89.8707Z" fill="#D6D6D6"/>
<path d="M318.649 92.9822C318.046 93.1825 317.584 92.938 317.043 93.265C315.716 94.0682 318.857 95.6368 320.4 95.3865C321.258 95.2474 321.506 94.6049 322.298 94.255C322.741 94.0592 323.072 94.1085 323.465 93.8308C323.825 93.5769 324.047 93.389 324.195 92.9822C324.43 92.3379 323.649 91.9601 323.757 91.285C323.888 90.4662 324.563 90.2544 325.071 89.5878C325.531 88.9833 325.701 88.5732 326.238 88.032C326.745 87.5225 327.878 87.1149 327.698 86.9006C327.518 86.6862 327.388 86.5529 327.114 86.4763C326.781 86.3831 326.238 86.6177 326.238 86.6177C326.238 86.6177 323.439 89.0752 321.714 90.7193C321.139 91.267 320.904 91.6711 320.254 92.1336C319.679 92.5433 319.324 92.7576 318.649 92.9822Z" fill="#D6D6D6"/>
<path d="M288.258 185.283C288.76 184.598 289.593 183.564 289.593 183.564L294.932 184.424L298.361 183.216L300.717 178.266C300.717 178.266 301.285 179.653 301.607 180.557C301.922 181.444 302.201 181.922 302.348 182.848C302.642 184.693 302.255 185.816 301.607 187.574C300.647 190.177 299.309 191.329 297.305 193.302C295.367 195.211 291.669 197.455 291.669 197.455C291.669 197.455 287.632 199.335 285.737 198.028C284.717 197.325 284.322 196.608 283.957 195.45C283.335 193.477 284.368 192.217 285.143 190.295C286.001 188.168 286.892 187.146 288.258 185.283Z" fill="#C0C0C0"/>
<path d="M301.607 180.557C301.286 179.653 300.717 178.266 300.717 178.266C300.717 178.266 297.584 181.225 298.361 183.216C298.775 184.276 300.005 184.272 300.405 185.337C301.015 186.963 299.927 188.052 299.091 189.58C298.424 190.8 297.856 191.383 296.902 192.409C295.821 193.571 295.334 194.079 294.275 195.096C293.286 196.046 291.669 197.455 291.669 197.455C291.669 197.455 295.367 195.211 297.306 193.302C299.309 191.329 300.648 190.177 301.607 187.574C302.255 185.816 302.642 184.693 302.348 182.848C302.201 181.922 301.922 181.444 301.607 180.557Z" fill="#9C9C9C"/>
<path d="M288.258 185.283C286.893 187.146 286.002 188.168 285.144 190.295C284.369 192.217 283.336 193.477 283.957 195.45C284.322 196.609 284.934 197.642 285.737 198.028C285.665 197.585 285.517 197.818 285.372 196.935C285.227 196.052 285.028 195.209 285.144 194.106C285.283 192.776 285.667 192.067 286.248 190.853C286.87 189.553 287.189 188.732 288.258 187.742C288.733 187.302 289.052 187.112 289.593 186.752C291.478 185.497 295.295 186.185 294.933 184.424C294.519 182.415 289.593 183.565 289.593 183.565C289.593 183.565 288.76 184.598 288.258 185.283Z" fill="#D6D6D6"/>
<path d="M259.58 107.36C263.229 107.36 264.18 107.394 266.982 106.842C269.808 106.287 271.392 105.799 273.987 104.58C276.363 103.463 277.669 102.703 279.679 101.044C281.399 99.6248 282.744 98.2151 283.62 96.9422C284.204 97.6494 284.175 97.9723 284.788 98.3565C285.002 98.4907 285.129 98.5626 285.372 98.6394C286.418 98.9711 286.93 97.906 287.999 97.6494C289.331 97.3294 290.133 97.4663 291.502 97.3665C294.462 97.1507 296.13 97.1522 299.091 96.9422C301.716 96.756 303.21 96.8043 305.805 96.3765C309.981 95.6878 311.936 93.4703 316.167 93.2649C317.021 93.2235 317.522 93.0851 318.357 93.2649C320.21 93.6642 320.88 94.8953 322.005 96.3765C322.807 97.4309 323.396 98.0539 323.611 99.3465C323.862 100.855 323.786 102.026 322.735 103.165C321.556 104.444 319.992 103.641 318.357 104.297C316.514 105.035 315.887 106.285 313.978 106.842C312.712 107.212 311.901 106.947 310.621 107.267C308.326 107.841 307.424 109.105 305.221 109.954C303.663 110.554 302.782 110.928 301.134 111.227C299.953 111.441 299.269 111.437 298.069 111.51C295.794 111.647 295.588 110.944 292.815 111.51C292.815 112.217 292.831 112.473 293.253 113.065C294.173 114.358 294.884 114.939 295.88 116.177C299.477 120.647 299.934 124.316 304.053 128.34C304.561 128.836 304.982 128.999 305.385 129.578C305.944 130.38 305.614 131.12 306.133 131.947C306.983 133.301 308.13 133.516 309.572 134.263C310.642 134.817 311.392 134.835 312.427 135.447C313.664 136.179 314.187 136.83 315.219 137.816C316.073 138.633 316.448 139.188 317.299 140.008C318.494 141.161 319.52 141.469 320.546 142.766C321.445 143.904 321.869 144.648 322.297 146.019C322.648 147.141 322.8 147.819 322.735 148.989C322.659 150.368 322.107 151.057 321.714 152.384C320.831 155.359 320.612 157.11 319.524 160.021C318.439 162.927 317.08 164.273 316.167 167.234C315.732 168.646 316.363 169.865 315.292 170.911C314.327 171.854 313.305 171.877 311.935 171.901C310.58 171.926 309.788 171.644 308.578 171.053C307.738 170.642 307.248 170.377 306.608 169.709C305.834 168.904 304.772 168.326 304.637 167.234C304.199 163.698 304.861 162.482 305.659 159.597C306.053 158.17 306.979 157.537 307.045 156.061C307.099 154.876 306.921 154.159 306.389 153.091C303.615 151.535 302.01 151.535 296.756 150.545C296.464 150.545 295.588 150.545 295.004 153.232C294.712 155.071 295.231 156.875 295.88 159.314C296.48 161.571 296.649 162.88 297.34 165.113C298.266 168.11 299.175 169.661 300.259 172.609C300.785 174.04 301.353 174.781 301.572 176.286C301.731 177.38 301.76 178.025 301.572 179.114C301.237 181.064 300.758 182.278 299.529 183.923C298.89 184.778 298.599 185.418 297.631 185.903C296.564 186.439 295.769 186.162 294.567 186.186C293.425 186.209 292.769 186.251 291.647 186.045C290.709 185.872 290.101 185.86 289.312 185.337C288.577 184.85 288.38 184.335 287.853 183.64C286.206 181.471 285.588 179.947 284.496 177.417C283.096 174.177 282.654 172.219 281.869 168.79C281.542 167.362 281.465 166.54 281.139 165.113C280.499 162.313 280.789 161.699 279.388 159.172C278.575 157.708 277.212 156.107 276.541 154.576C275.895 153.1 276.177 151.984 275.447 150.545C274.504 148.687 274.571 150.545 272.382 146.302C270.418 142.497 268.003 140.927 266.836 136.826C266.633 136.116 266.555 135.709 266.398 134.988C266.206 134.108 266.14 133.607 265.96 132.725C265.46 130.28 265.23 127.492 264.5 126.502C264.217 126.473 264.055 126.488 263.771 126.502C261.435 126.617 263.372 134.971 261.144 139.796C260.727 140.698 260.249 141.107 259.976 142.059C259.595 143.39 260.276 144.245 259.976 145.595C259.643 147.092 259.267 147.98 258.224 149.131C257.306 150.144 256.628 150.693 255.305 151.111C253.897 151.556 252.986 151.249 251.511 151.111C250.242 150.992 249.401 151.167 248.3 150.545C247.359 150.014 246.819 149.54 246.402 148.565C245.944 147.493 246.531 146.748 246.402 145.595C246.283 144.529 245.994 143.967 245.819 142.908C245.664 141.974 245.395 141.44 245.527 140.503C245.624 139.811 245.942 139.486 246.11 138.806C246.364 137.78 246.379 137.174 246.402 136.119C246.432 134.789 246.043 134.053 246.11 132.725C246.153 131.89 246.291 131.432 246.402 130.603C246.706 128.341 246.471 126.994 247.132 124.804C247.37 124.016 247.496 123.565 247.862 122.824C248.237 122.064 248.547 121.687 249.029 120.986C249.618 120.131 250.055 119.724 250.635 118.864C251.891 117.004 252.049 115.659 253.262 113.773C253.847 112.862 254.148 112.324 254.868 111.51C256.107 110.108 256.813 108.983 258.662 108.54C258.999 108.459 259.282 108.625 259.538 108.398C259.835 108.134 259.471 107.736 259.58 107.36Z" fill="url(#paint25_linear)"/>
<path d="M305.386 129.578C304.983 128.999 304.562 128.836 304.054 128.34C299.935 124.316 299.478 120.647 295.881 116.177C294.885 114.939 294.174 114.358 293.254 113.065C292.832 112.473 292.816 111.51 292.816 111.51C292.816 111.51 291.355 111.207 290.626 110.661C288.997 109.44 289.604 105.711 289.313 105.711C286.209 105.711 289.77 110.391 290.335 113.348C290.675 115.127 290.812 116.144 291.357 117.874C292.331 120.97 293.184 122.657 295.005 125.37C297.096 128.485 298.221 130.639 301.573 132.442C304.379 133.951 311.016 135.01 309.573 134.263C308.131 133.516 306.984 133.301 306.134 131.947C305.615 131.12 305.945 130.38 305.386 129.578Z" fill="url(#paint26_linear)"/>
<path d="M292.815 111.51C295.588 110.944 295.794 111.647 298.069 111.51C300.345 111.372 295.595 110.95 294.275 110.095C293.302 109.466 292.862 108.962 292.085 108.115C291.245 107.199 289.312 105.711 289.312 105.711C289.312 105.711 289.253 107.294 289.458 108.115C289.697 109.066 289.594 109.801 290.334 110.52C291.038 111.202 292.815 111.51 292.815 111.51Z" fill="url(#paint27_linear)"/>
<path d="M296.756 150.545C302.01 151.535 303.616 151.535 306.389 153.091C306.922 154.159 307.099 154.876 307.046 156.061C306.979 157.537 306.054 158.17 305.659 159.597C304.862 162.482 304.2 163.698 304.638 167.234C304.773 168.326 305.835 168.904 306.608 169.709C307.381 170.514 307.684 169.133 307.703 168.507C307.721 167.86 306.938 167.796 306.608 167.234C305.924 166.07 306.002 165.176 306.097 163.84C306.222 162.079 307.124 161.27 307.703 159.597C308.401 157.575 309.676 156.466 309.308 154.364C309.009 152.655 308.324 151.682 306.973 150.545C305.299 149.136 303.788 148.772 301.573 148.848C299.572 148.916 297.194 149.555 296.756 150.545Z" fill="#B26F34"/>
<path d="M274.709 117.591L275.292 117.167C275.292 117.167 275.495 119.408 275.438 120.844C275.382 122.289 275.423 123.135 275 124.522C274.443 126.348 273.293 127.014 272.519 128.765C272.044 129.84 271.498 131.593 271.498 131.593C271.498 131.593 270.584 127.86 271.06 126.785C271.834 125.034 272.984 124.368 273.541 122.542C273.964 121.155 273.922 120.309 273.979 118.864C274.709 117.591 274.709 117.591 274.709 117.591Z" fill="#D18643"/>
<path d="M259.538 108.398C259.283 108.625 258.999 108.459 258.662 108.54C256.813 108.982 256.107 110.108 254.868 111.51C254.148 112.324 253.847 112.862 253.262 113.773C252.049 115.659 251.891 117.004 250.635 118.864C250.055 119.724 249.618 120.131 249.03 120.986C248.547 121.687 248.237 122.064 247.862 122.824C247.496 123.565 247.37 124.016 247.132 124.804C246.471 126.994 246.707 128.341 246.402 130.603C246.291 131.432 246.153 131.89 246.11 132.725C246.043 134.053 246.432 134.789 246.402 136.119C246.379 137.174 246.364 137.78 246.11 138.806C245.942 139.486 245.624 139.811 245.527 140.503C245.395 141.44 245.664 141.974 245.819 142.908C245.994 143.967 246.283 144.529 246.402 145.595C246.531 146.748 245.944 147.493 246.402 148.565C246.819 149.54 247.359 150.014 248.3 150.545C249.401 151.167 250.242 150.992 251.511 151.111C252.779 151.23 251.719 145.483 252.24 141.918C252.896 137.433 253.594 134.961 254.868 130.603C256.115 126.334 256.901 123.949 258.662 119.854C260.653 115.226 269.423 110.326 264.647 108.398H259.538Z" fill="#E5A064"/>
<path d="M291.648 186.045C292.769 186.251 294.567 186.186 294.567 186.186C297.47 185.221 292.719 181.902 291.648 179.114C290.679 176.593 290.111 175.185 289.313 172.608C288.668 170.53 288.879 169.163 287.853 167.234C287.033 165.692 285.919 165.23 285.08 163.698C283.607 161.01 283.764 159.092 283.474 156.061C283.227 153.476 283.474 152.009 283.474 149.414C283.474 147.37 283.657 146.217 283.474 144.181C283.32 142.453 283.927 141.098 282.745 139.796C281.801 138.756 280.815 129.579 279.388 129.502C277.749 129.414 276.768 129.973 275.447 130.916C273.127 132.573 270.193 142.059 272.382 146.302C274.571 150.545 274.504 148.687 275.447 150.545C276.177 151.984 275.895 153.1 276.542 154.576C277.212 156.107 278.575 157.708 279.388 159.172C280.789 161.698 280.499 162.313 281.139 165.113C281.466 166.54 281.542 167.362 281.869 168.79L281.892 168.889C282.663 172.257 283.11 174.208 284.496 177.417C285.589 179.947 286.154 181.447 287.853 183.64C288.387 184.33 288.578 184.85 289.313 185.337C290.101 185.86 290.709 185.872 291.648 186.045Z" fill="#E5A064"/>
<path d="M276.143 107.84L276.639 107.542C276.639 107.542 279.257 110.768 280.727 112.972C283.472 117.089 284.125 119.882 286.566 124.173C287.888 126.496 288.752 127.732 290.069 130.057C292.003 133.469 293.592 135.208 294.74 138.939C295.771 142.29 295.908 147.82 295.908 147.82L295.411 148.118C295.411 148.118 295.274 142.587 294.243 139.236C293.096 135.505 291.506 133.766 289.573 130.354C288.255 128.029 287.391 126.794 286.069 124.471C283.628 120.179 282.975 117.386 280.231 113.27C278.761 111.065 276.143 107.84 276.143 107.84Z" fill="url(#paint28_linear)"/>
<path d="M284.496 98.2151C284.496 98.2151 284.936 98.4846 285.226 98.5828C285.81 98.7809 285.787 98.6954 286.102 98.6394C286.685 98.498 286.944 98.029 287.561 97.7908C287.947 97.642 288.177 97.5902 288.583 97.5079C289.31 97.3605 289.739 97.4128 290.48 97.3665C291.846 97.2811 292.615 97.2845 293.983 97.225C295.18 97.173 295.852 97.1506 297.048 97.0836C298.645 96.9941 299.538 96.8991 301.135 96.8007C302.103 96.7411 303.616 96.6593 303.616 96.6593C303.881 96.926 303.939 97.1545 304.054 97.5079C304.515 98.9263 303.691 100.004 302.594 101.044C301.357 102.216 300.081 102.125 298.362 102.317C296.135 102.565 294.899 101.831 292.669 101.609C288.637 101.209 282.307 101.044 282.307 101.044L283.62 99.6294L284.496 98.2151Z" fill="#E49046"/>
<path d="M259.684 108.115C259.684 108.115 268.67 108.595 273.914 106.56C278.962 104.601 284.583 98.2151 284.583 98.2151C284.714 98.3146 284.79 98.3662 284.934 98.4499C284.934 98.4499 279.244 104.939 274.279 106.984C268.898 109.201 259.538 108.398 259.538 108.398C259.642 108.304 259.663 108.241 259.684 108.115Z" fill="url(#paint29_linear)"/>
<path d="M259.684 108.115C259.684 108.115 268.67 108.595 273.914 106.56C278.962 104.601 284.583 98.2151 284.583 98.2151C284.714 98.3146 284.79 98.3662 284.934 98.4499C284.934 98.4499 279.244 104.939 274.279 106.984C268.898 109.201 259.538 108.398 259.538 108.398C259.642 108.304 259.663 108.241 259.684 108.115Z" fill="url(#paint30_linear)"/>
<path d="M263.333 117.167H263.625C263.625 117.167 264.899 120.21 264.939 122.259C264.971 123.932 264.209 126.485 264.209 126.485C263.926 126.494 264.041 126.493 263.917 126.493C263.917 126.493 264.702 123.848 264.647 122.117C264.583 120.122 263.333 117.167 263.333 117.167Z" fill="url(#paint31_linear)"/>
<path d="M241.291 81.271C241.696 79.4194 242.167 78.4026 243.164 76.7451C244.103 75.1834 244.815 74.3888 246.13 73.0679C247.985 71.2034 249.238 70.2892 251.593 68.9663C253.865 67.6898 255.291 67.1622 257.837 66.4206C260.614 65.6114 262.258 65.2532 265.173 65.1477C267.495 65.0636 268.826 65.1617 271.105 65.572C272.468 65.8174 273.257 65.9324 274.539 66.4206C275.772 66.8905 276.437 67.2455 277.505 67.9763C280.23 69.8417 280.976 71.7122 282.5 74.4822C283.292 75.9234 283.643 76.7769 284.217 78.3009C284.809 79.8734 285.176 80.7617 285.465 82.4024C285.879 84.7477 286.148 86.191 285.465 88.484C284.911 90.3443 284.196 91.2955 282.968 92.8684C281.871 94.2727 281.138 95.009 279.69 96.1214C277.896 97.4996 276.608 97.9362 274.539 98.95C271.996 100.196 270.579 100.976 267.827 101.779C263.846 102.939 261.293 103.879 257.212 103.052C255.08 102.619 253.913 102.123 252.061 101.072C250.593 100.238 249.871 99.6191 248.627 98.5257C245.993 96.2095 244.645 94.6385 243.164 91.5955C241.344 87.857 240.413 85.279 241.291 81.271Z" fill="url(#paint32_linear)"/>
<path d="M243.896 89.7568L251.047 101.071C251.047 101.071 248.895 101.175 247.691 100.647C246.331 100.052 245.793 99.2721 244.917 98.1013C244.065 96.9608 243.675 96.212 243.312 94.8483C242.843 93.0833 243.896 89.7568 243.896 89.7568Z" fill="#B7B6B2"/>
<path d="M281.139 75.4446C281.139 75.4446 284.11 76.4522 284.909 77.0281C285.588 77.5183 285.899 77.9003 286.368 78.5838C287.107 79.6602 287.341 80.4162 287.536 81.6953C287.677 82.6242 287.677 83.1708 287.536 84.0997C287.341 85.3788 284.909 89.305 284.909 89.305L281.139 75.4446Z" fill="#B7B7C3"/>
<g filter="url(#filter1_f)">
<path d="M284.033 78.3211L284.681 77.8766C284.681 77.8766 285.316 78.8504 285.654 79.5064C286.115 80.4011 286.326 80.9274 286.627 81.8771C286.772 82.3354 287.025 82.5901 286.951 83.0625C286.879 83.5243 286.303 84.0996 286.303 84.0996C286.303 84.0996 285.973 82.6376 285.654 81.7289C285.169 80.3471 284.033 78.3211 284.033 78.3211Z" fill="#62635E" fill-opacity="0.5"/>
</g>
<path d="M243.604 83.5338C243.983 81.6823 244.423 80.6655 245.355 79.008C246.234 77.4463 246.899 76.6517 248.129 75.3308C249.863 73.4663 251.035 72.5521 253.237 71.2292C255.362 69.9526 256.695 69.4251 259.075 68.6834C261.672 67.8743 263.209 67.5161 265.935 67.4106C268.106 67.3265 269.35 67.4245 271.481 67.8348C272.756 68.0803 273.494 68.1953 274.692 68.6834C275.845 69.1534 276.466 69.5083 277.465 70.2392C280.014 72.1046 280.711 73.975 282.135 76.7451C282.877 78.1863 283.204 79.0398 283.741 80.5638C284.295 82.1363 284.638 83.0246 284.908 84.6653C285.295 87.0105 285.547 88.4539 284.908 90.7469C284.391 92.6072 283.722 93.5583 282.573 95.1313C281.548 96.5356 280.862 97.2718 279.508 98.3842C277.831 99.7625 276.626 100.199 274.692 101.213C272.314 102.459 270.989 103.239 268.416 104.042C264.694 105.202 262.306 106.142 258.491 105.314C256.497 104.882 255.406 104.386 253.675 103.334C252.302 102.5 251.626 101.882 250.464 100.789C248.001 98.4723 246.741 96.9014 245.355 93.8584C243.654 90.1199 242.783 87.5418 243.604 83.5338Z" fill="url(#paint33_linear)"/>
<path d="M249.15 86.0797C250.464 83.9582 250.981 83.2309 252.507 81.6953C254.255 79.9368 255.459 79.1384 257.616 77.8766C259.712 76.6505 261.007 76.1416 263.308 75.3308C266.519 74.1994 268.124 73.9165 270.751 73.9165C272.608 73.9165 273.852 75.0362 274.984 76.4623C276.443 78.3009 276.774 78.7221 277.903 80.8467C278.804 82.5427 279.8 85.3725 279.8 85.3725C279.8 85.3725 280.486 87.7766 279.8 89.0497C278.049 92.3027 274.941 94.9061 270.751 97.2528C266.379 99.7019 265.059 100.647 258.345 100.364C255.134 99.6572 250.226 95.0735 249.15 89.6155C248.925 88.471 248.532 87.0788 249.15 86.0797Z" fill="url(#paint34_linear)"/>
<path d="M255.426 79.1497C257.54 77.6227 258.987 76.9042 261.41 75.8967C263.763 74.9185 265.145 74.3626 267.686 74.0581C268.593 73.9494 270.021 73.9167 270.021 73.9167C270.021 73.9167 264.592 79.4241 262.724 83.8169C260.663 88.6628 260.826 97.1116 260.826 97.1116L254.696 97.6773C254.696 97.6773 249.266 88.6456 250.172 84.9484C250.464 83.7568 251.291 82.8441 252.361 81.6954C253.413 80.5659 254.167 80.059 255.426 79.1497Z" fill="url(#paint35_linear)"/>
<path fill-rule="evenodd" clip-rule="evenodd" d="M252.061 81.4616C250.478 83.0627 249.941 83.8211 248.579 86.0331C248.008 86.9596 248.268 88.2103 248.496 89.3151C248.525 89.4526 248.553 89.5879 248.579 89.72C249.695 95.411 254.786 100.191 258.117 100.928C264.75 101.209 266.307 100.328 270.359 98.0373L270.986 97.6835C275.332 95.2365 278.556 92.522 280.372 89.1301C281.084 87.8025 280.372 85.2958 280.372 85.2958C280.372 85.2958 279.339 82.3452 278.404 80.5767C277.233 78.3614 276.89 77.9222 275.376 76.0051C274.202 74.5181 272.912 73.3506 270.986 73.3506C268.26 73.3506 266.595 73.6455 263.264 74.8253C260.878 75.6707 259.534 76.2013 257.36 77.4798C255.122 78.7955 253.874 79.628 252.061 81.4616ZM252.507 81.6951C250.981 83.2307 250.464 83.958 249.15 86.0795C248.6 86.9678 248.85 88.1669 249.071 89.2263C249.098 89.3584 249.125 89.4884 249.15 89.6153C250.226 95.0733 255.134 99.6571 258.345 100.364C264.739 100.634 266.241 99.7889 270.147 97.5921C270.342 97.4823 270.543 97.3692 270.751 97.2527C274.94 94.9059 278.048 92.3025 279.8 89.0496C280.485 87.7764 279.8 85.3723 279.8 85.3723C279.8 85.3723 278.804 82.5425 277.903 80.8465C276.773 78.7219 276.443 78.3007 274.984 76.4621C273.852 75.036 272.608 73.9163 270.751 73.9163C268.124 73.9163 266.518 74.1992 263.307 75.3306C261.007 76.1414 259.711 76.6503 257.615 77.8764C255.459 79.1382 254.255 79.9366 252.507 81.6951Z" fill="url(#paint36_linear)"/>
<path d="M315.128 153.383C316.356 152.262 317.727 149.979 317.727 149.979C317.727 149.979 317.439 150.865 317.208 151.413C316.674 152.678 316.193 153.268 315.128 154.1C314.067 154.929 312.181 155.354 312.181 155.354C312.181 155.354 314.101 154.321 315.128 153.383Z" fill="#AC7341"/>
<ellipse rx="2.86758" ry="2.84674" transform="matrix(0.786789 -0.617412 0.641307 0.76744 283.3 108.298)" fill="#59C7EA"/>
<path d="M281.526 110.517L281.75 109.535L282.209 109.534L282.455 108.896L283.013 108.801L282.398 108.34L284.551 108.331L283.334 107.914L282.801 106.704L284.173 106.948L284.382 106.561L285.775 106.788L286.217 107.487L286.387 108.262L285.825 109.92L284.735 110.861L283.384 111.236L281.854 110.91L281.526 110.517Z" fill="#DBDBDB"/>
<path fill-rule="evenodd" clip-rule="evenodd" d="M284.597 108.33L282.971 108.344L282.488 108.356L283.069 108.794L282.653 108.984L282.336 109.662L281.817 109.731L281.505 110.618L281.576 109.235L282.131 109.416L282.193 108.121L282.869 108.221L282.845 107.609L282.603 106.431L283.214 106.526L284.021 106.83L284.096 106.36C285.179 106.612 285.739 106.754 285.775 106.788C285.811 106.821 285.358 106.786 284.417 106.682L284.95 107.435L283.905 107.244L282.95 106.847L283.207 107.468L284.174 107.675L283.405 107.935L284.597 108.33Z" fill="white"/>
<path fill-rule="evenodd" clip-rule="evenodd" d="M282.098 108.063C282.098 108.063 281.7 108.138 281.529 108.301C281.359 108.465 281.266 108.537 281.266 108.537C281.266 108.537 281.487 108.691 281.688 108.712C281.889 108.706 281.871 108.747 281.871 108.747C281.366 111.046 283.064 112.104 285.117 110.493C285.117 110.493 284.317 110.298 283.958 110.099C283.507 109.837 283.675 109.334 283.675 109.334C283.675 109.334 283.964 109.09 284.555 109.142C284.836 109.166 285.067 109.016 285.084 108.99C285.124 108.929 285.041 108.756 285.041 108.756C285.041 108.756 285.146 108.734 285.182 108.557C285.218 108.38 285.112 108.106 285.112 108.106C285.112 108.106 284.621 108.045 284.439 108.01C284.256 107.975 283.978 107.915 283.806 107.782C283.634 107.65 283.068 107.489 283.068 107.489C281.677 106.884 280.937 107.567 280.703 108.259C280.601 108.6 280.63 109.106 281.309 109.33C280.922 108.927 280.905 108.674 280.936 108.517C281.043 107.989 281.64 107.651 282.098 108.063Z" fill="#BC0624"/>
<g filter="url(#filter2_i)">
<path d="M280.704 108.258C280.911 107.566 281.638 107.051 282.567 107.316C282.567 107.316 282.224 107.487 282.138 107.688C282.079 107.823 282.099 108.062 282.099 108.062C281.64 107.65 281.044 107.988 280.937 108.516C280.906 108.673 280.922 108.926 281.31 109.329C280.631 109.105 280.602 108.599 280.704 108.258Z" fill="#7B5C46"/>
<path d="M280.704 108.258C280.911 107.566 281.638 107.051 282.567 107.316C282.567 107.316 282.224 107.487 282.138 107.688C282.079 107.823 282.099 108.062 282.099 108.062C281.64 107.65 281.044 107.988 280.937 108.516C280.906 108.673 280.922 108.926 281.31 109.329C280.631 109.105 280.602 108.599 280.704 108.258Z" fill="url(#paint37_linear)"/>
</g>
<path d="M284.951 108.26C284.94 108.246 284.937 108.226 284.945 108.21L284.975 108.147C284.98 108.135 284.988 108.125 284.998 108.118C285.016 108.104 285.038 108.098 285.06 108.1L285.11 108.106L285.128 108.133C285.133 108.14 285.137 108.148 285.14 108.157C285.159 108.218 285.112 108.278 285.047 108.278L284.989 108.277C284.975 108.277 284.961 108.271 284.951 108.26Z" fill="#1C1C21"/>
<mask id="mask0" mask-type="alpha" maskUnits="userSpaceOnUse" x="280" y="107" width="3" height="3">
<path d="M280.704 108.258C280.911 107.566 281.638 107.052 282.567 107.316L282.099 108.062C281.64 107.649 281.044 107.988 280.937 108.516C280.906 108.673 280.922 108.926 281.31 109.329C280.631 109.105 280.602 108.599 280.704 108.258Z" fill="#7B5C46"/>
<path d="M280.704 108.258C280.911 107.566 281.638 107.052 282.567 107.316L282.099 108.062C281.64 107.649 281.044 107.988 280.937 108.516C280.906 108.673 280.922 108.926 281.31 109.329C280.631 109.105 280.602 108.599 280.704 108.258Z" fill="url(#paint38_linear)"/>
</mask>
<g mask="url(#mask0)">
<path d="M282.186 107.238C281.96 107.576 281.88 107.741 281.94 107.95" stroke="#372620" stroke-width="0.1" stroke-miterlimit="2.6131"/>
<path d="M282.186 107.238C281.96 107.576 281.88 107.741 281.94 107.95" stroke="url(#paint39_linear)" stroke-width="0.1" stroke-miterlimit="2.6131"/>
<path d="M281.751 107.271C281.7 107.5 281.635 107.658 281.726 107.884" stroke="#372620" stroke-width="0.1" stroke-miterlimit="2.6131"/>
<path d="M281.751 107.271C281.7 107.5 281.635 107.658 281.726 107.884" stroke="url(#paint40_linear)" stroke-width="0.1" stroke-miterlimit="2.6131"/>
<path d="M281.298 107.464C281.327 107.657 281.37 107.75 281.503 107.903" stroke="#372620" stroke-width="0.1" stroke-miterlimit="2.6131"/>
<path d="M281.298 107.464C281.327 107.657 281.37 107.75 281.503 107.903" stroke="url(#paint41_linear)" stroke-width="0.1" stroke-miterlimit="2.6131"/>
<path d="M281.02 107.68C281.114 107.84 281.162 107.891 281.307 107.997" stroke="#372620" stroke-width="0.1" stroke-miterlimit="2.6131"/>
<path d="M281.02 107.68C281.114 107.84 281.162 107.891 281.307 107.997" stroke="url(#paint42_linear)" stroke-width="0.1" stroke-miterlimit="2.6131"/>
<path d="M280.861 107.879C280.935 108.018 281 108.075 281.143 108.144" stroke="#372620" stroke-width="0.1" stroke-miterlimit="2.6131"/>
<path d="M280.861 107.879C280.935 108.018 281 108.075 281.143 108.144" stroke="url(#paint43_linear)" stroke-width="0.1" stroke-miterlimit="2.6131"/>
<path d="M280.712 108.143C280.686 108.192 281.028 108.404 281 108.332" stroke="#372620" stroke-width="0.1" stroke-miterlimit="2.6131"/>
<path d="M280.712 108.143C280.686 108.192 281.028 108.404 281 108.332" stroke="url(#paint44_linear)" stroke-width="0.1" stroke-miterlimit="2.6131"/>
<path d="M280.635 108.442C280.744 108.513 280.812 108.538 280.941 108.55" stroke="#372620" stroke-width="0.1" stroke-miterlimit="2.6131"/>
<path d="M280.635 108.442C280.744 108.513 280.812 108.538 280.941 108.55" stroke="url(#paint45_linear)" stroke-width="0.1" stroke-miterlimit="2.6131"/>
</g>
<path d="M285.117 110.493C283.023 110.902 282.676 109.38 282.765 108.567C282.728 108.905 282.989 109.203 283.134 109.306C283.262 109.425 283.538 109.398 283.666 109.367C283.592 109.684 283.769 109.939 283.877 110.026C284.026 110.145 285.117 110.493 285.117 110.493Z" fill="#8F0018"/>
<g filter="url(#filter3_i)">
<path fill-rule="evenodd" clip-rule="evenodd" d="M283.669 108.151C283.669 108.151 283.526 108.089 283.463 108.127C283.4 108.166 283.401 108.209 283.356 108.245C283.31 108.282 283.276 108.286 283.276 108.286C283.276 108.286 283.388 108.34 283.483 108.303C283.579 108.267 283.651 108.202 283.651 108.202L283.669 108.151Z" fill="#A4001B"/>
</g>
<g filter="url(#filter4_i)">
<path fill-rule="evenodd" clip-rule="evenodd" d="M284.518 108.851C284.518 108.851 284.534 108.808 284.716 108.778C284.898 108.748 285.038 108.755 285.038 108.755" fill="#AD0420"/>
</g>
<path d="M281.871 108.747C281.986 108.781 282.07 108.769 282.162 108.738C282.051 108.812 281.95 108.843 281.856 108.817C281.86 108.798 281.866 108.767 281.871 108.747Z" fill="url(#paint46_linear)" fill-opacity="0.3"/>
<g filter="url(#filter5_i)">
<path d="M281.413 108.623C281.413 108.623 281.447 108.638 281.558 108.518C281.668 108.399 281.766 108.312 281.938 108.302C281.957 108.301 282.248 108.372 282.257 108.134C282.282 108.158 282.193 108.433 282.31 108.616C282.127 108.863 281.871 108.747 281.871 108.747C281.871 108.747 281.841 108.716 281.689 108.712C281.537 108.708 281.413 108.623 281.413 108.623Z" fill="#AD0420"/>
</g>
<g filter="url(#filter6_i)">
<path d="M283.436 108.203C283.493 108.12 283.59 108.159 283.59 108.159C283.563 108.145 283.473 108.193 283.49 108.232C283.502 108.259 283.581 108.201 283.586 108.196C283.583 108.201 283.504 108.278 283.463 108.285C283.421 108.293 283.343 108.285 283.343 108.285C283.381 108.282 283.427 108.217 283.436 108.203Z" fill="#810016"/>
</g>
<path fill-rule="evenodd" clip-rule="evenodd" d="M285.301 110.691C286.665 109.621 286.876 107.682 285.772 106.361C284.669 105.041 282.668 104.837 281.304 105.908C279.939 106.978 279.728 108.917 280.832 110.238C281.936 111.559 283.937 111.762 285.301 110.691ZM285.128 110.484C286.374 109.507 286.567 107.736 285.559 106.529C284.55 105.323 282.723 105.137 281.477 106.115C280.231 107.093 280.038 108.864 281.046 110.07C282.054 111.277 283.882 111.462 285.128 110.484Z" fill="#BC0624"/>
<path fill-rule="evenodd" clip-rule="evenodd" d="M285.301 110.691C286.665 109.621 286.876 107.682 285.772 106.361C284.669 105.041 282.668 104.837 281.304 105.908C279.939 106.978 279.728 108.917 280.832 110.238C281.936 111.559 283.937 111.762 285.301 110.691ZM285.128 110.484C286.374 109.507 286.567 107.736 285.559 106.529C284.55 105.323 282.723 105.137 281.477 106.115C280.231 107.093 280.038 108.864 281.046 110.07C282.054 111.277 283.882 111.462 285.128 110.484Z" fill="url(#paint47_linear)"/>
<g filter="url(#filter7_d)">
<path d="M385.809 249.653V227.753H338.409L333.759 215.903L367.809 138.353H394.209L364.509 205.703H385.809V186.803L390.759 173.153H411.759V205.703H421.809V223.703L411.759 227.753V249.653H385.809Z" fill="#3E404E"/>
</g>
</g>
<defs>
<filter id="filter0_d" x="222.829" y="136.107" width="131.147" height="121.617" filterUnits="userSpaceOnUse" color-interpolation-filters="sRGB">
<feFlood flood-opacity="0" result="BackgroundImageFix"/>
<feColorMatrix in="SourceAlpha" type="matrix" values="0 0 0 0 0 0 0 0 0 0 0 0 0 0 0 0 0 0 127 0"/>
<feOffset dx="-7"/>
<feGaussianBlur stdDeviation="2"/>
<feColorMatrix type="matrix" values="0 0 0 0 0 0 0 0 0 0 0 0 0 0 0 0 0 0 0.4 0"/>
<feBlend mode="normal" in2="BackgroundImageFix" result="effect1_dropShadow"/>
<feBlend mode="normal" in="SourceGraphic" in2="effect1_dropShadow" result="shape"/>
</filter>
<filter id="filter1_f" x="280.033" y="73.8766" width="10.9311" height="14.223" filterUnits="userSpaceOnUse" color-interpolation-filters="sRGB">
<feFlood flood-opacity="0" result="BackgroundImageFix"/>
<feBlend mode="normal" in="SourceGraphic" in2="BackgroundImageFix" result="shape"/>
<feGaussianBlur stdDeviation="2" result="effect1_foregroundBlur"/>
</filter>
<filter id="filter2_i" x="280.66" y="107.245" width="1.90709" height="6.08361" filterUnits="userSpaceOnUse" color-interpolation-filters="sRGB">
<feFlood flood-opacity="0" result="BackgroundImageFix"/>
<feBlend mode="normal" in="SourceGraphic" in2="BackgroundImageFix" result="shape"/>
<feColorMatrix in="SourceAlpha" type="matrix" values="0 0 0 0 0 0 0 0 0 0 0 0 0 0 0 0 0 0 127 0" result="hardAlpha"/>
<feOffset dy="4"/>
<feGaussianBlur stdDeviation="2"/>
<feComposite in2="hardAlpha" operator="arithmetic" k2="-1" k3="1"/>
<feColorMatrix type="matrix" values="0 0 0 0 0 0 0 0 0 0 0 0 0 0 0 0 0 0 0.35 0"/>
<feBlend mode="normal" in2="shape" result="effect1_innerShadow"/>
</filter>
<filter id="filter3_i" x="283.276" y="108.115" width="0.3931" height="0.701143" filterUnits="userSpaceOnUse" color-interpolation-filters="sRGB">
<feFlood flood-opacity="0" result="BackgroundImageFix"/>
<feBlend mode="normal" in="SourceGraphic" in2="BackgroundImageFix" result="shape"/>
<feColorMatrix in="SourceAlpha" type="matrix" values="0 0 0 0 0 0 0 0 0 0 0 0 0 0 0 0 0 0 127 0" result="hardAlpha"/>
<feOffset dy="0.5"/>
<feGaussianBlur stdDeviation="0.25"/>
<feComposite in2="hardAlpha" operator="arithmetic" k2="-1" k3="1"/>
<feColorMatrix type="matrix" values="0 0 0 0 0 0 0 0 0 0 0 0 0 0 0 0 0 0 0.05 0"/>
<feBlend mode="normal" in2="shape" result="effect1_innerShadow"/>
</filter>
<filter id="filter4_i" x="284.518" y="108.754" width="0.519878" height="0.196417" filterUnits="userSpaceOnUse" color-interpolation-filters="sRGB">
<feFlood flood-opacity="0" result="BackgroundImageFix"/>
<feBlend mode="normal" in="SourceGraphic" in2="BackgroundImageFix" result="shape"/>
<feColorMatrix in="SourceAlpha" type="matrix" values="0 0 0 0 0 0 0 0 0 0 0 0 0 0 0 0 0 0 127 0" result="hardAlpha"/>
<feOffset dy="0.1"/>
<feGaussianBlur stdDeviation="0.05"/>
<feComposite in2="hardAlpha" operator="arithmetic" k2="-1" k3="1"/>
<feColorMatrix type="matrix" values="0 0 0 0 0 0 0 0 0 0 0 0 0 0 0 0 0 0 0.25 0"/>
<feBlend mode="normal" in2="shape" result="effect1_innerShadow"/>
</filter>
<filter id="filter5_i" x="281.413" y="108.134" width="0.897608" height="1.14009" filterUnits="userSpaceOnUse" color-interpolation-filters="sRGB">
<feFlood flood-opacity="0" result="BackgroundImageFix"/>
<feBlend mode="normal" in="SourceGraphic" in2="BackgroundImageFix" result="shape"/>
<feColorMatrix in="SourceAlpha" type="matrix" values="0 0 0 0 0 0 0 0 0 0 0 0 0 0 0 0 0 0 127 0" result="hardAlpha"/>
<feOffset dy="0.5"/>
<feGaussianBlur stdDeviation="0.75"/>
<feComposite in2="hardAlpha" operator="arithmetic" k2="-1" k3="1"/>
<feColorMatrix type="matrix" values="0 0 0 0 0 0 0 0 0 0 0 0 0 0 0 0 0 0 0.04 0"/>
<feBlend mode="normal" in2="shape" result="effect1_innerShadow"/>
</filter>
<filter id="filter6_i" x="283.343" y="108.15" width="0.246906" height="0.239094" filterUnits="userSpaceOnUse" color-interpolation-filters="sRGB">
<feFlood flood-opacity="0" result="BackgroundImageFix"/>
<feBlend mode="normal" in="SourceGraphic" in2="BackgroundImageFix" result="shape"/>
<feColorMatrix in="SourceAlpha" type="matrix" values="0 0 0 0 0 0 0 0 0 0 0 0 0 0 0 0 0 0 127 0" result="hardAlpha"/>
<feOffset dy="0.1"/>
<feGaussianBlur stdDeviation="0.05"/>
<feComposite in2="hardAlpha" operator="arithmetic" k2="-1" k3="1"/>
<feColorMatrix type="matrix" values="0 0 0 0 0 0 0 0 0 0 0 0 0 0 0 0 0 0 0.25 0"/>
<feBlend mode="normal" in2="shape" result="effect1_innerShadow"/>
</filter>
<filter id="filter7_d" x="322.759" y="134.353" width="99.05" height="119.3" filterUnits="userSpaceOnUse" color-interpolation-filters="sRGB">
<feFlood flood-opacity="0" result="BackgroundImageFix"/>
<feColorMatrix in="SourceAlpha" type="matrix" values="0 0 0 0 0 0 0 0 0 0 0 0 0 0 0 0 0 0 127 0"/>
<feOffset dx="-7"/>
<feGaussianBlur stdDeviation="2"/>
<feColorMatrix type="matrix" values="0 0 0 0 0 0 0 0 0 0 0 0 0 0 0 0 0 0 0.4 0"/>
<feBlend mode="normal" in2="BackgroundImageFix" result="effect1_dropShadow"/>
<feBlend mode="normal" in="SourceGraphic" in2="effect1_dropShadow" result="shape"/>
</filter>
<linearGradient id="paint0_linear" x1="469.033" y1="68.1371" x2="490.918" y2="47.0831" gradientUnits="userSpaceOnUse">
<stop stop-color="#F67C01"/>
<stop offset="1" stop-color="#BB5E00"/>
</linearGradient>
<linearGradient id="paint1_linear" x1="506.663" y1="15.0461" x2="527.612" y2="37.8298" gradientUnits="userSpaceOnUse">
<stop offset="0.213542" stop-color="#D2CECE"/>
<stop offset="1" stop-color="#393535"/>
</linearGradient>
<linearGradient id="paint2_linear" x1="506.663" y1="15.0461" x2="527.612" y2="37.8298" gradientUnits="userSpaceOnUse">
<stop offset="0.213542" stop-color="#D2CECE"/>
<stop offset="1" stop-color="#393535"/>
</linearGradient>
<linearGradient id="paint3_linear" x1="498.724" y1="51.2519" x2="508.762" y2="62.169" gradientUnits="userSpaceOnUse">
<stop stop-color="#404040"/>
<stop offset="1"/>
</linearGradient>
<linearGradient id="paint4_linear" x1="489.246" y1="41.572" x2="478.335" y2="29.7055" gradientUnits="userSpaceOnUse">
<stop/>
<stop offset="1" stop-color="#7A7A7A"/>
</linearGradient>
<linearGradient id="paint5_linear" x1="530.252" y1="0.36414" x2="543.781" y2="15.0787" gradientUnits="userSpaceOnUse">
<stop stop-color="#8C8B8B"/>
<stop offset="1"/>
</linearGradient>
<linearGradient id="paint6_linear" x1="481.879" y1="39.5867" x2="500.209" y2="59.5222" gradientUnits="userSpaceOnUse">
<stop offset="0.1875" stop-color="white"/>
<stop offset="1" stop-color="#393535"/>
</linearGradient>
<linearGradient id="paint7_linear" x1="526.092" y1="-0.19113" x2="544.423" y2="19.7445" gradientUnits="userSpaceOnUse">
<stop offset="0.135417" stop-color="white"/>
<stop offset="1" stop-color="#393535"/>
</linearGradient>
<linearGradient id="paint8_linear" x1="526.411" y1="22.2906" x2="520.738" y2="16.1199" gradientUnits="userSpaceOnUse">
<stop offset="0.0885417" stop-color="#212121"/>
<stop offset="1" stop-color="#606060"/>
</linearGradient>
<linearGradient id="paint9_linear" x1="271.865" y1="144.881" x2="316.412" y2="249.979" gradientUnits="userSpaceOnUse">
<stop stop-color="#D36300"/>
<stop offset="1" stop-color="#532800"/>
</linearGradient>
<linearGradient id="paint10_linear" x1="260.148" y1="175.808" x2="267.003" y2="191.976" gradientUnits="userSpaceOnUse">
<stop stop-color="#1F0406"/>
<stop offset="1" stop-color="#A8111A"/>
</linearGradient>
<linearGradient id="paint11_linear" x1="322.457" y1="156.274" x2="325.432" y2="161.596" gradientUnits="userSpaceOnUse">
<stop stop-color="#190306"/>
<stop offset="1" stop-color="#E0131F"/>
</linearGradient>
<linearGradient id="paint12_linear" x1="343.012" y1="201.236" x2="349.428" y2="203.541" gradientUnits="userSpaceOnUse">
<stop stop-color="#2E0508"/>
<stop offset="1" stop-color="#7D060D"/>
</linearGradient>
<linearGradient id="paint13_linear" x1="288.731" y1="140.93" x2="289.123" y2="144.464" gradientUnits="userSpaceOnUse">
<stop stop-color="#420609"/>
<stop offset="1" stop-color="#DF131E"/>
</linearGradient>
<linearGradient id="paint14_linear" x1="299.272" y1="220.662" x2="303.564" y2="243.722" gradientUnits="userSpaceOnUse">
<stop stop-color="#150305"/>
<stop offset="1" stop-color="#70090F"/>
</linearGradient>
<linearGradient id="paint15_linear" x1="241.22" y1="225.316" x2="235.908" y2="204.482" gradientUnits="userSpaceOnUse">
<stop stop-color="#6F060A"/>
<stop offset="1" stop-color="#8C080E"/>
</linearGradient>
<linearGradient id="paint16_linear" x1="243.183" y1="224.737" x2="237.541" y2="203.973" gradientUnits="userSpaceOnUse">
<stop stop-color="#6F060A"/>
<stop offset="1" stop-color="#8C080E"/>
</linearGradient>
<linearGradient id="paint17_linear" x1="306.592" y1="251.709" x2="284.112" y2="252.887" gradientUnits="userSpaceOnUse">
<stop stop-color="#2A0001"/>
<stop offset="1" stop-color="#360103"/>
</linearGradient>
<linearGradient id="paint18_linear" x1="306.688" y1="250.401" x2="284.123" y2="250.395" gradientUnits="userSpaceOnUse">
<stop stop-color="#2A0001"/>
<stop offset="1" stop-color="#360103"/>
</linearGradient>
<linearGradient id="paint19_linear" x1="344.914" y1="228.592" x2="352.404" y2="212.029" gradientUnits="userSpaceOnUse">
<stop stop-color="#380103"/>
<stop offset="1" stop-color="#470205"/>
</linearGradient>
<linearGradient id="paint20_linear" x1="343.267" y1="227.866" x2="350.693" y2="211.275" gradientUnits="userSpaceOnUse">
<stop stop-color="#380103"/>
<stop offset="1" stop-color="#470205"/>
</linearGradient>
<linearGradient id="paint21_linear" x1="338.151" y1="155.416" x2="345.734" y2="165.477" gradientUnits="userSpaceOnUse">
<stop stop-color="#92090E"/>
<stop offset="1" stop-color="#82070C"/>
</linearGradient>
<linearGradient id="paint22_linear" x1="337.25" y1="156.011" x2="344.571" y2="166.272" gradientUnits="userSpaceOnUse">
<stop stop-color="#92090E"/>
<stop offset="1" stop-color="#82070C"/>
</linearGradient>
<linearGradient id="paint23_linear" x1="278.658" y1="96.5179" x2="259.246" y2="107.499" gradientUnits="userSpaceOnUse">
<stop stop-color="#778186"/>
<stop offset="1" stop-color="#474B4C"/>
</linearGradient>
<linearGradient id="paint24_linear" x1="278.95" y1="97.3665" x2="260.249" y2="107.758" gradientUnits="userSpaceOnUse">
<stop stop-color="#C1C1C1"/>
<stop offset="1" stop-color="#929292"/>
</linearGradient>
<linearGradient id="paint25_linear" x1="298.653" y1="96.6593" x2="281.898" y2="189.205" gradientUnits="userSpaceOnUse">
<stop stop-color="#D4853F"/>
<stop offset="1" stop-color="#D79962"/>
</linearGradient>
<linearGradient id="paint26_linear" x1="298.653" y1="96.6593" x2="281.899" y2="189.205" gradientUnits="userSpaceOnUse">
<stop stop-color="#A25D21"/>
<stop offset="1" stop-color="#D79962"/>
</linearGradient>
<linearGradient id="paint27_linear" x1="298.653" y1="96.6593" x2="281.898" y2="189.205" gradientUnits="userSpaceOnUse">
<stop stop-color="#995316"/>
<stop offset="1" stop-color="#D79962"/>
</linearGradient>
<linearGradient id="paint28_linear" x1="284.35" y1="124.38" x2="286.944" y2="123.042" gradientUnits="userSpaceOnUse">
<stop stop-color="#6A4222"/>
<stop offset="1" stop-color="#D58947"/>
</linearGradient>
<linearGradient id="paint29_linear" x1="269.755" y1="105.57" x2="270.582" y2="108.272" gradientUnits="userSpaceOnUse">
<stop stop-color="#D48845"/>
<stop offset="1" stop-color="#4E3219"/>
</linearGradient>
<linearGradient id="paint30_linear" x1="282.745" y1="99.488" x2="284.641" y2="99.3375" gradientUnits="userSpaceOnUse">
<stop stop-color="#D48641" stop-opacity="0"/>
<stop offset="1" stop-color="#4E3219"/>
</linearGradient>
<linearGradient id="paint31_linear" x1="263.479" y1="117.591" x2="264.395" y2="126.528" gradientUnits="userSpaceOnUse">
<stop stop-color="#D58A49"/>
<stop offset="1" stop-color="#281709"/>
</linearGradient>
<linearGradient id="paint32_linear" x1="242.708" y1="78.9804" x2="277.243" y2="84.6945" gradientUnits="userSpaceOnUse">
<stop stop-color="#9F9F9F"/>
<stop offset="1" stop-color="#787877"/>
</linearGradient>
<linearGradient id="paint33_linear" x1="243.292" y1="84.0719" x2="270" y2="84.8249" gradientUnits="userSpaceOnUse">
<stop stop-color="#CBCBCB"/>
<stop offset="1" stop-color="#828380"/>
</linearGradient>
<linearGradient id="paint34_linear" x1="249.734" y1="87.494" x2="279.507" y2="88.2471" gradientUnits="userSpaceOnUse">
<stop stop-color="#1B0A5D"/>
<stop offset="0.390625" stop-color="#1B0A5D"/>
<stop offset="0.970597" stop-color="#010005"/>
</linearGradient>
<linearGradient id="paint35_linear" x1="270.167" y1="75.4724" x2="254.748" y2="86.9647" gradientUnits="userSpaceOnUse">
<stop stop-color="#FFF9FF" stop-opacity="0.36"/>
<stop offset="1" stop-color="#1B0A5D" stop-opacity="0"/>
</linearGradient>
<linearGradient id="paint36_linear" x1="248.254" y1="87.1833" x2="280.655" y2="87.1833" gradientUnits="userSpaceOnUse">
<stop stop-color="#5B5C59"/>
<stop offset="1" stop-color="#3F403E"/>
</linearGradient>
<linearGradient id="paint37_linear" x1="281.181" y1="107.551" x2="281.757" y2="108.295" gradientUnits="userSpaceOnUse">
<stop stop-color="#A58C7A"/>
<stop offset="1" stop-color="#7B5C46" stop-opacity="0"/>
</linearGradient>
<linearGradient id="paint38_linear" x1="281.181" y1="107.551" x2="281.757" y2="108.295" gradientUnits="userSpaceOnUse">
<stop stop-color="#A58C7A"/>
<stop offset="1" stop-color="#7B5C46" stop-opacity="0"/>
</linearGradient>
<linearGradient id="paint39_linear" x1="281.913" y1="107.438" x2="282.172" y2="107.768" gradientUnits="userSpaceOnUse">
<stop stop-color="#95614F"/>
<stop offset="1" stop-color="#372620" stop-opacity="0"/>
</linearGradient>
<linearGradient id="paint40_linear" x1="281.539" y1="107.402" x2="281.844" y2="107.791" gradientUnits="userSpaceOnUse">
<stop stop-color="#95614F"/>
<stop offset="1" stop-color="#372620" stop-opacity="0"/>
</linearGradient>
<linearGradient id="paint41_linear" x1="281.249" y1="107.502" x2="281.54" y2="107.874" gradientUnits="userSpaceOnUse">
<stop stop-color="#95614F"/>
<stop offset="1" stop-color="#372620" stop-opacity="0"/>
</linearGradient>
<linearGradient id="paint42_linear" x1="281.027" y1="107.675" x2="281.29" y2="108.011" gradientUnits="userSpaceOnUse">
<stop stop-color="#95614F"/>
<stop offset="1" stop-color="#372620" stop-opacity="0"/>
</linearGradient>
<linearGradient id="paint43_linear" x1="280.879" y1="107.865" x2="281.115" y2="108.166" gradientUnits="userSpaceOnUse">
<stop stop-color="#95614F"/>
<stop offset="1" stop-color="#372620" stop-opacity="0"/>
</linearGradient>
<linearGradient id="paint44_linear" x1="280.752" y1="108.112" x2="280.957" y2="108.373" gradientUnits="userSpaceOnUse">
<stop stop-color="#95614F"/>
<stop offset="1" stop-color="#372620" stop-opacity="0"/>
</linearGradient>
<linearGradient id="paint45_linear" x1="280.7" y1="108.391" x2="280.869" y2="108.606" gradientUnits="userSpaceOnUse">
<stop stop-color="#95614F"/>
<stop offset="1" stop-color="#372620" stop-opacity="0"/>
</linearGradient>
<linearGradient id="paint46_linear" x1="281.976" y1="108.705" x2="281.998" y2="108.857" gradientUnits="userSpaceOnUse">
<stop/>
<stop offset="1" stop-color="#BC0624"/>
</linearGradient>
<linearGradient id="paint47_linear" x1="283.272" y1="105.133" x2="283.825" y2="110.59" gradientUnits="userSpaceOnUse">
<stop offset="0.0001" stop-color="#F44336"/>
<stop offset="1" stop-color="#BC0624" stop-opacity="0"/>
</linearGradient>
<clipPath id="clip0">
<rect width="589" height="271" fill="white"/>
</clipPath>
</defs>
</svg>
