<svg width="205" height="444" viewBox="0 0 205 444" fill="none" xmlns="http://www.w3.org/2000/svg">
<path d="M175.055 70.6666C175.84 63.8177 181.999 58.8951 188.848 59.6799C195.697 60.4646 200.62 66.6238 199.835 73.4727C199.05 80.3216 192.891 85.2442 186.042 84.4594C179.193 83.6984 174.271 77.5154 175.055 70.6666Z" fill="#FCC9A7"/>
<path d="M182.689 67.8129L168.302 96.8016L180.097 103.056L191.892 82.0575L182.689 67.8129Z" fill="#FCC9A7"/>
<path d="M87.4945 116.777L152.154 150.76C154.723 152.235 158.005 151.236 159.312 148.572L189.3 94.1382L172.011 82.8899L147.921 123.198L102.405 94.4473C95.6514 89.2393 85.8299 91.5461 82.0963 99.2035C79.0286 105.6 81.3829 113.258 87.4945 116.777Z" fill="#F9A772"/>
<path d="M97.863 283.718C97.863 283.718 81.6921 311.566 72.3938 329.592C70.9432 332.398 68.5651 334.467 66.4486 336.821C60.0754 343.908 54.0351 351.565 46.9722 365.239C36.4611 385.619 18.9346 426.712 18.9346 426.712L6.68755 422.17L19.8858 376.939C19.8858 376.939 22.0974 337.178 47.5904 315.846C47.5904 315.846 54.5106 303.813 60.4558 280.365L97.863 283.718Z" fill="#F2C09E"/>
<path d="M120.502 271.685C120.502 271.685 103.713 377.962 106.519 430.208L92.013 430.731L87.7562 384.834C87.7562 384.834 75.1048 353.277 87.9227 325.858L82.0012 264.171L120.502 271.685Z" fill="#FCC9A7"/>
<path d="M78.5768 72.4025C78.5768 72.4025 62.4297 86.8137 66.52 108.145C70.6103 129.5 82.5007 138.68 80.5031 152.758L126.614 151.093L125.663 124.958C125.663 124.958 140.645 113.519 124.593 95.2796L110.776 79.5368L98.3862 81.1301L78.5768 72.4025Z" fill="#F9A772"/>
<path d="M102.572 68.8592L111.917 74.305L118.172 84.8398L105.283 80.8922L102.572 68.8592Z" fill="#F7EBE7"/>
<path d="M98.41 81.1301C95.6277 81.1063 92.6788 79.9649 90.491 78.8234C88.3269 77.7057 86.9952 75.4465 86.9952 72.9971L87.447 28.2892L106.995 28.3844L106.543 72.5215C106.519 77.6343 102.857 81.1539 98.41 81.1301Z" fill="#FCC9A7"/>
<path d="M106.662 60.1555L98.6002 48.7407C98.6002 48.7407 93.6538 61.7726 106.614 65.8153L106.662 60.1555Z" fill="#F2C09E"/>
<path d="M124.26 28.4795C124.188 41.7967 113.344 52.5218 100.051 52.4743C86.7336 52.4029 75.9847 41.5589 76.056 28.2654C76.1274 14.9482 86.9714 4.19929 100.289 4.27063C113.582 4.34197 124.331 15.1622 124.26 28.4795Z" fill="#FCC9A7"/>
<path d="M108.398 60.2981C102.072 60.2744 96.9831 55.1139 97.0069 48.7882L97.0782 32.2844L124.26 28.4795L124.188 44.6504C124.141 53.3304 117.078 60.3219 108.398 60.2981Z" fill="#FCC9A7"/>
<path d="M123.523 33.8777L128.754 41.6541C129.491 42.9144 128.516 44.4602 126.971 44.4602L120.859 45.5779L123.523 33.8777Z" fill="#FCC9A7"/>
<path d="M86.686 64.7213L110.8 79.5605L105.568 89.8576L78.5768 72.4263C78.5768 72.4025 81.9537 66.5049 86.686 64.7213Z" fill="#F7EBE7"/>
<path d="M80.5268 152.782L77.2213 164.054L127.304 162.246L126.614 151.117L80.5268 152.782Z" fill="#F7EBE7"/>
<path d="M127.304 162.246L129.587 288.974C129.587 288.974 79.1238 298.914 51.3478 281.697C51.3478 281.697 62.1919 240.937 60.1705 224.267C56.4131 193.708 60.7174 180.51 77.2689 164.03L127.304 162.246Z" fill="#E49258"/>
<path d="M87.5659 423.882C87.9226 422.622 89.2544 422.099 90.2294 422.86C92.1081 424.382 95.4374 426.165 100.194 425.476C105.14 424.738 106.876 421.742 107.47 419.602C107.78 418.484 108.826 417.866 109.801 418.294L140.597 432.039C142.476 432.871 143.974 434.536 144.783 436.629C145.544 438.603 144.307 440.814 142.404 440.862L90.3245 441.837C88.2794 441.884 86.6147 439.934 86.686 437.604L87.019 426.094C87.019 425.904 87.0428 425.713 87.1142 425.523L87.5659 423.882Z" fill="#1F252A"/>
<path d="M4.66618 413.371C5.35582 412.254 6.78268 412.087 7.4961 413.086C8.89916 415.06 11.634 417.652 16.4139 418.246C21.3603 418.865 23.8335 416.415 24.9987 414.513C25.5932 413.514 26.7586 413.205 27.5909 413.871L53.6546 435.273C55.2479 436.581 56.2467 438.555 56.4845 440.814C56.6985 442.931 54.9149 444.738 53.0838 444.262L2.59727 431.397C0.623461 430.898 -0.470477 428.591 0.195384 426.355L3.57229 415.345C3.61985 415.155 3.71498 414.988 3.81011 414.822L4.66618 413.371Z" fill="#1F252A"/>
<path d="M97.102 38.8954L107.352 38.5149C107.352 38.5149 108.231 29.6209 110.229 27.4807C112.227 25.3404 113.249 15.8281 113.249 15.8281C113.249 15.8281 115.08 21.7495 113.677 27.8849L128.469 27.3618C128.469 27.3618 131.679 1.29802 99.1472 0.0376372C66.6151 -1.22274 67.4949 29.5496 73.892 35.6612C78.981 40.5125 87.233 49.1449 87.233 49.1449C87.233 49.1449 86.8525 39.2521 97.102 38.8954Z" fill="#4C1827"/>
<path d="M104.522 35.7326C104.664 39.5375 101.692 42.7241 97.8868 42.8668C94.0819 43.0095 90.8953 40.0369 90.7526 36.232C90.6099 32.4271 93.5824 29.2405 97.3874 29.0978C101.192 28.9789 104.379 31.9277 104.522 35.7326Z" fill="#FCC9A7"/>
<path d="M78.4103 40.6314C78.7195 49.2163 72.0133 56.4456 63.4284 56.7548C54.8435 57.0639 47.6142 50.3578 47.305 41.7491C46.9959 33.1643 53.7021 25.9349 62.287 25.6258C70.8956 25.3166 78.1012 32.0228 78.4103 40.6314Z" fill="#4C1827"/>
<path d="M95.6514 179.368C102.429 180.557 106.971 187.002 105.806 193.803C104.617 200.581 98.1722 205.123 91.3709 203.958C84.5933 202.769 80.0512 196.324 81.2165 189.523C82.4055 182.722 88.8739 178.179 95.6514 179.368Z" fill="#FCC9A7"/>
<path d="M99.8844 180.938L71.7993 164.862L64.8553 176.253L85.1165 189.285L99.8844 180.938Z" fill="#FCC9A7"/>
<path d="M70.1822 82.7709L25.1176 141.985C23.2152 144.268 23.6195 147.669 26.0213 149.428L74.7243 187.002L88.8025 171.949L52.9649 142.651L89.5397 101.391C95.8416 95.6601 95.2947 85.577 88.3982 80.5593C82.6671 76.3739 74.7243 77.3727 70.1822 82.7709Z" fill="#F9A772"/>
<path d="M204.425 42.8668L190.965 78.6093C190.608 79.5843 189.538 80.0837 188.563 79.7746L170.608 74.1147C169.538 73.7818 168.967 72.5928 169.396 71.5464L183.307 36.2795C183.688 35.3521 184.687 34.8527 185.662 35.138L203.164 40.2985C204.258 40.6314 204.829 41.7967 204.425 42.8668Z" fill="#1C2226"/>
<path d="M199.883 44.3888L189.728 73.2586C189.49 73.9245 188.777 74.305 188.087 74.1385L174.627 70.6427C173.819 70.4287 173.391 69.5726 173.7 68.8116L185.234 39.6802C185.495 39.0143 186.232 38.6576 186.922 38.8716L199.003 42.6528C199.74 42.8668 200.144 43.6516 199.883 44.3888Z" fill="#EFEFEF"/>
</svg>
