<svg width="877" height="653" viewBox="0 0 917 733" fill="none" xmlns="http://www.w3.org/2000/svg">
<path d="M142.5 151.5C-33.1 127.1 -9.66664 9.33333 24 -46.5L250.5 -92L399.5 -14C387 51.3333 318.1 175.9 142.5 151.5Z" fill="#FFA230"/>
<path d="M137.304 96.577C225 55.983 168.969 -18.2138 137.304 -39.5152L1063.26 -62C1137.75 32.6728 1229.55 220.441 1000.76 214.129C714.774 206.24 635.343 356.517 177.802 302.096C-13.3228 279.363 -3.02229 161.533 137.304 96.577Z" fill="#F5705B"/>
<g filter="url(#filter0_i)">
<circle cx="457" cy="473" r="260" fill="#FFA230"/>
</g>
<path d="M311.608 426.672C310.084 426.672 308.574 426.976 307.166 427.567C305.757 428.158 304.477 429.025 303.399 430.117C302.322 431.209 301.466 432.506 300.883 433.933C300.3 435.36 300 436.89 300 438.434V513.582C300 515.127 300.3 516.656 300.884 518.083C301.467 519.51 302.322 520.807 303.4 521.899C304.478 522.991 305.758 523.858 307.166 524.449C308.574 525.04 310.084 525.344 311.608 525.344C313.133 525.344 314.642 525.04 316.051 524.449C317.459 523.858 318.739 522.991 319.817 521.899C320.895 520.807 321.75 519.51 322.333 518.083C322.917 516.656 323.217 515.127 323.217 513.582V438.434C323.217 436.89 322.917 435.36 322.334 433.933C321.75 432.506 320.895 431.209 319.817 430.117C318.739 429.025 317.46 428.158 316.051 427.567C314.643 426.976 313.133 426.672 311.608 426.672Z" fill="white"/>
<path d="M357.851 381.403C356.327 381.402 354.817 381.707 353.409 382.299C352 382.891 350.72 383.76 349.642 384.854C348.564 385.948 347.709 387.248 347.126 388.678C346.543 390.107 346.243 391.64 346.243 393.188V558.835C346.243 561.961 347.466 564.958 349.643 567.168C351.82 569.378 354.772 570.62 357.851 570.62C360.93 570.62 363.883 569.378 366.06 567.168C368.237 564.958 369.46 561.961 369.46 558.835V393.188C369.46 391.64 369.16 390.107 368.577 388.678C367.993 387.248 367.138 385.948 366.06 384.854C364.982 383.76 363.702 382.891 362.294 382.299C360.885 381.707 359.376 381.402 357.851 381.403V381.403Z" fill="white"/>
<path d="M404.094 328C402.569 328 401.06 328.306 399.651 328.901C398.243 329.496 396.963 330.368 395.885 331.467C394.807 332.567 393.952 333.872 393.369 335.309C392.785 336.746 392.485 338.286 392.485 339.841V612.174C392.485 615.315 393.709 618.326 395.886 620.547C398.063 622.767 401.015 624.015 404.094 624.015C407.173 624.015 410.125 622.767 412.302 620.547C414.479 618.326 415.702 615.315 415.702 612.174V339.841C415.703 338.286 415.402 336.746 414.819 335.309C414.236 333.872 413.381 332.567 412.303 331.467C411.225 330.368 409.945 329.496 408.537 328.901C407.128 328.306 405.618 328 404.094 328V328Z" fill="white"/>
<path d="M450.337 381.403C448.812 381.402 447.302 381.707 445.894 382.299C444.485 382.891 443.206 383.76 442.128 384.854C441.05 385.948 440.195 387.248 439.611 388.678C439.028 390.107 438.728 391.64 438.728 393.188V558.835C438.728 561.961 439.951 564.958 442.128 567.168C444.305 569.378 447.258 570.62 450.337 570.62C453.415 570.62 456.368 569.378 458.545 567.168C460.722 564.958 461.945 561.961 461.945 558.835V393.188C461.945 391.64 461.645 390.107 461.062 388.678C460.479 387.248 459.623 385.948 458.545 384.854C457.468 383.76 456.188 382.891 454.779 382.299C453.371 381.707 451.861 381.402 450.337 381.403V381.403Z" fill="white"/>
<path d="M496.579 426.672C495.055 426.672 493.545 426.976 492.137 427.567C490.728 428.158 489.448 429.025 488.37 430.117C487.292 431.209 486.437 432.506 485.854 433.933C485.271 435.36 484.971 436.89 484.971 438.434V513.582C484.971 516.702 486.194 519.693 488.371 521.899C490.548 524.105 493.501 525.344 496.579 525.344C499.658 525.344 502.611 524.105 504.788 521.899C506.965 519.693 508.188 516.702 508.188 513.582V438.434C508.188 436.89 507.888 435.36 507.305 433.933C506.721 432.506 505.866 431.209 504.788 430.117C503.71 429.025 502.431 428.158 501.022 427.567C499.614 426.976 498.104 426.672 496.579 426.672Z" fill="white"/>
<path d="M542.822 381.403C541.297 381.402 539.788 381.707 538.379 382.299C536.971 382.891 535.691 383.76 534.613 384.854C533.535 385.948 532.68 387.248 532.097 388.678C531.513 390.107 531.213 391.64 531.214 393.188V558.835C531.214 561.961 532.437 564.958 534.614 567.168C536.791 569.378 539.743 570.62 542.822 570.62C545.901 570.62 548.853 569.378 551.03 567.168C553.207 564.958 554.43 561.961 554.43 558.835V393.188C554.431 391.64 554.131 390.107 553.547 388.678C552.964 387.248 552.109 385.948 551.031 384.854C549.953 383.76 548.673 382.891 547.265 382.299C545.856 381.707 544.347 381.402 542.822 381.403V381.403Z" fill="white"/>
<path d="M589.065 426.672C587.54 426.672 586.031 426.976 584.622 427.567C583.214 428.158 581.934 429.025 580.856 430.117C579.778 431.209 578.923 432.506 578.34 433.933C577.756 435.36 577.456 436.89 577.456 438.434V513.582C577.456 516.702 578.679 519.693 580.856 521.899C583.033 524.105 585.986 525.344 589.065 525.344C592.144 525.344 595.096 524.105 597.273 521.899C599.45 519.693 600.673 516.702 600.673 513.582V438.434C600.673 436.89 600.373 435.36 599.79 433.933C599.207 432.506 598.352 431.209 597.274 430.117C596.196 429.025 594.916 428.158 593.507 427.567C592.099 426.976 590.589 426.672 589.065 426.672Z" fill="white"/>
<rect x="623.699" y="463.821" width="23.2169" height="23.2169" rx="11.6084" fill="white"/>
<defs>
<filter id="filter0_i" x="197" y="213" width="520" height="524" filterUnits="userSpaceOnUse" color-interpolation-filters="sRGB">
<feFlood flood-opacity="0" result="BackgroundImageFix"/>
<feBlend mode="normal" in="SourceGraphic" in2="BackgroundImageFix" result="shape"/>
<feColorMatrix in="SourceAlpha" type="matrix" values="0 0 0 0 0 0 0 0 0 0 0 0 0 0 0 0 0 0 127 0" result="hardAlpha"/>
<feOffset dy="4"/>
<feGaussianBlur stdDeviation="24"/>
<feComposite in2="hardAlpha" operator="arithmetic" k2="-1" k3="1"/>
<feColorMatrix type="matrix" values="0 0 0 0 0.533333 0 0 0 0 0.533333 0 0 0 0 0.533333 0 0 0 0.35 0"/>
<feBlend mode="normal" in2="shape" result="effect1_innerShadow"/>
</filter>
</defs>
</svg>
